RedHatDisplay-LightItalic.ufo
<glyph name="exclam" format="2">
  <advance width="174"/>
  <unicode hex="0021"/>
  <outline>
    <contour>
      <point x="56" y="187" type="line"/>
      <point x="93" y="187" type="line"/>
      <point x="209" y="708" type="line"/>
      <point x="162" y="708" type="line"/>
    </contour>
    <contour>
      <point x="38" y="-5" type="curve" smooth="yes"/>
      <point x="61" y="-5"/>
      <point x="79" y="13"/>
      <point x="79" y="36" type="curve" smooth="yes"/>
      <point x="79" y="55"/>
      <point x="64" y="70"/>
      <point x="46" y="70" type="curve" smooth="yes"/>
      <point x="23" y="70"/>
      <point x="5" y="52"/>
      <point x="5" y="29" type="curve" smooth="yes"/>
      <point x="5" y="10"/>
      <point x="20" y="-5"/>
    </contour>
  </outline>
</glyph>
<glyph name="numbersign" format="2">
  <advance width="657"/>
  <unicode hex="0023"/>
  <outline>
    <contour>
      <point x="28" y="0" type="line"/>
      <point x="72" y="0" type="line"/>
      <point x="185" y="230" type="line"/>
      <point x="398" y="230" type="line"/>
      <point x="285" y="0" type="line"/>
      <point x="329" y="0" type="line"/>
      <point x="442" y="230" type="line"/>
      <point x="574" y="230" type="line"/>
      <point x="583" y="270" type="line"/>
      <point x="462" y="270" type="line"/>
      <point x="540" y="430" type="line"/>
      <point x="666" y="430" type="line"/>
      <point x="675" y="470" type="line"/>
      <point x="560" y="470" type="line"/>
      <point x="673" y="700" type="line"/>
      <point x="629" y="700" type="line"/>
      <point x="516" y="470" type="line"/>
      <point x="303" y="470" type="line"/>
      <point x="416" y="700" type="line"/>
      <point x="372" y="700" type="line"/>
      <point x="259" y="470" type="line"/>
      <point x="126" y="470" type="line"/>
      <point x="117" y="430" type="line"/>
      <point x="239" y="430" type="line"/>
      <point x="161" y="270" type="line"/>
      <point x="34" y="270" type="line"/>
      <point x="26" y="230" type="line"/>
      <point x="141" y="230" type="line"/>
    </contour>
    <contour>
      <point x="205" y="270" type="line"/>
      <point x="283" y="430" type="line"/>
      <point x="496" y="430" type="line"/>
      <point x="418" y="270" type="line"/>
    </contour>
  </outline>
</glyph>
<glyph name="ampersand" format="2">
  <advance width="626"/>
  <unicode hex="0026"/>
  <outline>
    <contour>
      <point x="575" y="20" type="line"/>
      <point x="544" y="48"/>
      <point x="513" y="80"/>
      <point x="482" y="114" type="curve"/>
      <point x="537" y="173"/>
      <point x="582" y="247"/>
      <point x="615" y="329" type="curve"/>
      <point x="575" y="345" type="line"/>
      <point x="544" y="269"/>
      <point x="502" y="201"/>
      <point x="453" y="147" type="curve"/>
      <point x="394" y="216"/>
      <point x="337" y="295"/>
      <point x="283" y="383" type="curve"/>
      <point x="344" y="414" type="line" smooth="yes"/>
      <point x="445" y="465"/>
      <point x="487" y="514"/>
      <point x="487" y="587" type="curve" smooth="yes"/>
      <point x="487" y="660"/>
      <point x="432" y="711"/>
      <point x="354" y="711" type="curve" smooth="yes"/>
      <point x="258" y="711"/>
      <point x="185" y="633"/>
      <point x="185" y="533" type="curve" smooth="yes"/>
      <point x="185" y="496"/>
      <point x="194" y="462"/>
      <point x="224" y="402" type="curve"/>
      <point x="64" y="326"/>
      <point x="14" y="265"/>
      <point x="14" y="176" type="curve" smooth="yes"/>
      <point x="14" y="65"/>
      <point x="103" y="-11"/>
      <point x="231" y="-11" type="curve" smooth="yes"/>
      <point x="309" y="-11"/>
      <point x="388" y="22"/>
      <point x="452" y="82" type="curve"/>
      <point x="483" y="48"/>
      <point x="515" y="16"/>
      <point x="545" y="-10" type="curve"/>
    </contour>
    <contour>
      <point x="229" y="533" type="curve" smooth="yes"/>
      <point x="229" y="610"/>
      <point x="283" y="669"/>
      <point x="354" y="669" type="curve" smooth="yes"/>
      <point x="408" y="669"/>
      <point x="443" y="636"/>
      <point x="443" y="587" type="curve" smooth="yes"/>
      <point x="443" y="532"/>
      <point x="410" y="494"/>
      <point x="324" y="450" type="curve" smooth="yes"/>
      <point x="264" y="419" type="line"/>
      <point x="238" y="465"/>
      <point x="229" y="496"/>
    </contour>
    <contour>
      <point x="59" y="176" type="curve" smooth="yes"/>
      <point x="59" y="248"/>
      <point x="99" y="298"/>
      <point x="242" y="365" type="curve"/>
      <point x="308" y="262"/>
      <point x="366" y="183"/>
      <point x="423" y="115" type="curve"/>
      <point x="366" y="59"/>
      <point x="301" y="31"/>
      <point x="231" y="31" type="curve" smooth="yes"/>
      <point x="128" y="31"/>
      <point x="59" y="89"/>
    </contour>
  </outline>
</glyph>
<glyph name="quotesingle" format="2">
  <advance width="160"/>
  <unicode hex="0027"/>
  <outline>
    <contour>
      <point x="122" y="530" type="line"/>
      <point x="153" y="530" type="line"/>
      <point x="198" y="700" type="line"/>
      <point x="150" y="700" type="line"/>
    </contour>
  </outline>
</glyph>
<glyph name="parenright" format="2">
  <advance width="371"/>
  <unicode hex="0029"/>
  <outline>
    <contour>
      <point x="161" y="715" type="curve"/>
      <point x="132" y="678" type="line"/>
      <point x="219" y="606"/>
      <point x="271" y="473"/>
      <point x="271" y="320" type="curve" smooth="yes"/>
      <point x="271" y="101"/>
      <point x="138" y="-106"/>
      <point x="-48" y="-177" type="curve"/>
      <point x="-34" y="-221" type="line"/>
      <point x="178" y="-134"/>
      <point x="317" y="81"/>
      <point x="317" y="320" type="curve" smooth="yes"/>
      <point x="317" y="481"/>
      <point x="259" y="627"/>
    </contour>
  </outline>
</glyph>
<glyph name="hyphen" format="2">
  <advance width="434"/>
  <unicode hex="002D"/>
  <outline>
    <contour>
      <point x="64" y="302" type="line"/>
      <point x="55" y="258" type="line"/>
      <point x="385" y="258" type="line"/>
      <point x="394" y="302" type="line"/>
    </contour>
  </outline>
</glyph>
<glyph name="zero" format="2">
  <advance width="627"/>
  <unicode hex="0030"/>
  <outline>
    <contour>
      <point x="278" y="-11" type="curve" smooth="yes"/>
      <point x="454" y="-11"/>
      <point x="609" y="202"/>
      <point x="609" y="444" type="curve" smooth="yes"/>
      <point x="609" y="609"/>
      <point x="526" y="711"/>
      <point x="394" y="711" type="curve" smooth="yes"/>
      <point x="217" y="711"/>
      <point x="63" y="498"/>
      <point x="63" y="254" type="curve" smooth="yes"/>
      <point x="63" y="90"/>
      <point x="145" y="-11"/>
    </contour>
    <contour>
      <point x="286" y="32" type="curve" smooth="yes"/>
      <point x="174" y="32"/>
      <point x="108" y="113"/>
      <point x="108" y="251" type="curve" smooth="yes"/>
      <point x="108" y="465"/>
      <point x="243" y="667"/>
      <point x="386" y="668" type="curve" smooth="yes"/>
      <point x="498" y="668"/>
      <point x="564" y="587"/>
      <point x="564" y="449" type="curve" smooth="yes"/>
      <point x="564" y="235"/>
      <point x="429" y="32"/>
    </contour>
  </outline>
</glyph>
<glyph name="one" format="2">
  <advance width="257"/>
  <unicode hex="0031"/>
  <outline>
    <contour>
      <point x="85" y="0" type="line"/>
      <point x="128" y="0" type="line"/>
      <point x="277" y="700" type="line"/>
      <point x="249" y="700" type="line"/>
      <point x="115" y="644" type="line"/>
      <point x="105" y="595" type="line"/>
      <point x="222" y="644" type="line"/>
    </contour>
  </outline>
</glyph>
<glyph name="four" format="2">
  <advance width="582"/>
  <unicode hex="0034"/>
  <outline>
    <contour>
      <point x="366" y="0" type="line"/>
      <point x="409" y="0" type="line"/>
      <point x="451" y="197" type="line"/>
      <point x="533" y="197" type="line"/>
      <point x="541" y="239" type="line"/>
      <point x="460" y="239" type="line"/>
      <point x="558" y="700" type="line"/>
      <point x="513" y="700" type="line"/>
      <point x="23" y="232" type="line"/>
      <point x="16" y="197" type="line"/>
      <point x="408" y="197" type="line"/>
    </contour>
    <contour>
      <point x="91" y="239" type="line"/>
      <point x="500" y="629" type="line"/>
      <point x="417" y="239" type="line"/>
    </contour>
  </outline>
</glyph>
<glyph name="less" format="2">
  <advance width="600"/>
  <unicode hex="003C"/>
  <guideline x="450" y="280" angle="78.0" identifier="RFbtmDbUIP"/>
  <outline>
    <contour>
      <point x="397" y="123" type="line"/>
      <point x="423" y="153" type="line"/>
      <point x="204" y="345" type="line"/>
      <point x="506" y="542" type="line"/>
      <point x="486" y="575" type="line"/>
      <point x="141" y="349" type="line"/>
    </contour>
  </outline>
</glyph>
<glyph name="greater" format="2">
  <advance width="600"/>
  <unicode hex="003E"/>
  <outline>
    <contour>
      <point x="203" y="575" type="line"/>
      <point x="177" y="545" type="line"/>
      <point x="396" y="353" type="line"/>
      <point x="94" y="156" type="line"/>
      <point x="114" y="123" type="line"/>
      <point x="459" y="349" type="line"/>
    </contour>
  </outline>
</glyph>
<glyph name="question" format="2">
  <advance width="487"/>
  <unicode hex="003F"/>
  <guideline x="195" y="189" angle="78.0" color="0.999,0.001,0.001,0.999" identifier="xLRskaGzQS"/>
  <outline>
    <contour>
      <point x="175" y="193" type="curve"/>
      <point x="215" y="193" type="line"/>
      <point x="227" y="269"/>
      <point x="258" y="315"/>
      <point x="317" y="349" type="curve" smooth="yes"/>
      <point x="385" y="388" type="line" smooth="yes"/>
      <point x="463" y="433"/>
      <point x="504" y="493"/>
      <point x="504" y="563" type="curve" smooth="yes"/>
      <point x="504" y="650"/>
      <point x="427" y="711"/>
      <point x="319" y="711" type="curve" smooth="yes"/>
      <point x="246" y="711"/>
      <point x="170" y="680"/>
      <point x="102" y="622" type="curve"/>
      <point x="130" y="590" type="line"/>
      <point x="192" y="642"/>
      <point x="256" y="669"/>
      <point x="319" y="669" type="curve" smooth="yes"/>
      <point x="403" y="669"/>
      <point x="460" y="626"/>
      <point x="460" y="563" type="curve" smooth="yes"/>
      <point x="460" y="508"/>
      <point x="428" y="461"/>
      <point x="363" y="424" type="curve" smooth="yes"/>
      <point x="295" y="385" type="line" smooth="yes"/>
      <point x="223" y="344"/>
      <point x="188" y="285"/>
    </contour>
    <contour>
      <point x="160" y="-5" type="curve" smooth="yes"/>
      <point x="183" y="-5"/>
      <point x="201" y="13"/>
      <point x="201" y="36" type="curve" smooth="yes"/>
      <point x="201" y="55"/>
      <point x="186" y="70"/>
      <point x="168" y="70" type="curve" smooth="yes"/>
      <point x="145" y="70"/>
      <point x="127" y="52"/>
      <point x="127" y="29" type="curve" smooth="yes"/>
      <point x="127" y="10"/>
      <point x="142" y="-5"/>
    </contour>
  </outline>
</glyph>
<glyph name="A" format="2">
  <advance width="642"/>
  <unicode hex="0041"/>
  <anchor x="418" y="700" name="top"/>
  <anchor x="582" y="0" name="bottom"/>
  <outline>
    <contour>
      <point x="-44" y="0" type="line"/>
      <point x="7" y="0" type="line"/>
      <point x="152" y="237" type="line"/>
      <point x="492" y="237" type="line"/>
      <point x="538" y="0" type="line"/>
      <point x="583" y="0" type="line"/>
      <point x="446" y="700" type="line"/>
      <point x="387" y="700" type="line"/>
    </contour>
    <contour>
      <point x="177" y="278" type="line"/>
      <point x="410" y="659" type="line"/>
      <point x="484" y="278" type="line"/>
    </contour>
  </outline>
</glyph>
<glyph name="D" format="2">
  <advance width="699"/>
  <unicode hex="0044"/>
  <anchor x="447" y="700" name="top"/>
  <outline>
    <contour>
      <point x="29" y="0" type="line"/>
      <point x="267" y="0" type="line" smooth="yes"/>
      <point x="499" y="0"/>
      <point x="678" y="171"/>
      <point x="678" y="392" type="curve" smooth="yes"/>
      <point x="678" y="579"/>
      <point x="554" y="700"/>
      <point x="363" y="700" type="curve" smooth="yes"/>
      <point x="178" y="700" type="line"/>
    </contour>
    <contour>
      <point x="83" y="43" type="line"/>
      <point x="214" y="657" type="line"/>
      <point x="365" y="657" type="line" smooth="yes"/>
      <point x="526" y="657"/>
      <point x="632" y="553"/>
      <point x="632" y="394" type="curve" smooth="yes"/>
      <point x="632" y="199"/>
      <point x="473" y="43"/>
      <point x="275" y="43" type="curve" smooth="yes"/>
    </contour>
  </outline>
</glyph>
<glyph name="E" format="2">
  <advance width="590"/>
  <unicode hex="0045"/>
  <guideline x="495" y="-66" angle="78.0" identifier="k6vuNYWA5u"/>
  <anchor x="392" y="700" name="top"/>
  <anchor x="508" y="0" name="bottom"/>
  <outline>
    <contour>
      <point x="29" y="0" type="line"/>
      <point x="508" y="0" type="line"/>
      <point x="517" y="43" type="line"/>
      <point x="83" y="43" type="line"/>
      <point x="145" y="332" type="line"/>
      <point x="426" y="332" type="line"/>
      <point x="435" y="375" type="line"/>
      <point x="154" y="375" type="line"/>
      <point x="214" y="657" type="line"/>
      <point x="644" y="657" type="line"/>
      <point x="653" y="700" type="line"/>
      <point x="178" y="700" type="line"/>
    </contour>
  </outline>
</glyph>
<glyph name="G" format="2">
  <advance width="773"/>
  <unicode hex="0047"/>
  <anchor x="442" y="700" name="top"/>
  <anchor x="397" y="0" name="bottom"/>
  <outline>
    <contour>
      <point x="394" y="-11" type="curve" smooth="yes"/>
      <point x="571" y="-11"/>
      <point x="713" y="129"/>
      <point x="741" y="309" type="curve" smooth="yes"/>
      <point x="748" y="354" type="line"/>
      <point x="438" y="354" type="line"/>
      <point x="434" y="311" type="line"/>
      <point x="698" y="311" type="line"/>
      <point x="673" y="151"/>
      <point x="547" y="32"/>
      <point x="397" y="32" type="curve" smooth="yes"/>
      <point x="226" y="32"/>
      <point x="115" y="166"/>
      <point x="115" y="322" type="curve" smooth="yes"/>
      <point x="115" y="509"/>
      <point x="260" y="668"/>
      <point x="441" y="668" type="curve" smooth="yes"/>
      <point x="542" y="668"/>
      <point x="625" y="630"/>
      <point x="678" y="563" type="curve"/>
      <point x="712" y="589" type="line"/>
      <point x="652" y="667"/>
      <point x="554" y="711"/>
      <point x="444" y="711" type="curve" smooth="yes"/>
      <point x="242" y="711"/>
      <point x="69" y="535"/>
      <point x="69" y="320" type="curve" smooth="yes"/>
      <point x="69" y="132"/>
      <point x="209" y="-11"/>
    </contour>
  </outline>
</glyph>
<glyph name="H" format="2">
  <advance width="690"/>
  <unicode hex="0048"/>
  <guideline x="136" y="577" angle="78.0" identifier="7Tbys8jV4K"/>
  <anchor x="442" y="700" name="top"/>
  <outline>
    <contour>
      <point x="29" y="0" type="line"/>
      <point x="74" y="0" type="line"/>
      <point x="145" y="332" type="line"/>
      <point x="583" y="332" type="line"/>
      <point x="512" y="0" type="line"/>
      <point x="557" y="0" type="line"/>
      <point x="706" y="700" type="line"/>
      <point x="661" y="700" type="line"/>
      <point x="591" y="373" type="line"/>
      <point x="153" y="373" type="line"/>
      <point x="223" y="700" type="line"/>
      <point x="178" y="700" type="line"/>
    </contour>
  </outline>
</glyph>
<glyph name="I" format="2">
  <advance width="207"/>
  <unicode hex="0049"/>
  <anchor x="201" y="700" name="top"/>
  <anchor x="74" y="0" name="bottom"/>
  <outline>
    <contour>
      <point x="29" y="0" type="line"/>
      <point x="74" y="0" type="line"/>
      <point x="223" y="700" type="line"/>
      <point x="178" y="700" type="line"/>
    </contour>
  </outline>
</glyph>
<glyph name="J" format="2">
  <advance width="571"/>
  <unicode hex="004A"/>
  <guideline x="560" y="498" angle="78.0" identifier="YTSnbIA5oy"/>
  <anchor x="580" y="700" name="top"/>
  <outline>
    <contour>
      <point x="225" y="-11" type="curve" smooth="yes"/>
      <point x="380" y="-11"/>
      <point x="473" y="96"/>
      <point x="508" y="262" type="curve" smooth="yes"/>
      <point x="601" y="700" type="line"/>
      <point x="556" y="700" type="line"/>
      <point x="463" y="262" type="line" smooth="yes"/>
      <point x="434" y="124"/>
      <point x="350" y="32"/>
      <point x="226" y="32" type="curve" smooth="yes"/>
      <point x="132" y="32"/>
      <point x="73" y="80"/>
      <point x="48" y="172" type="curve"/>
      <point x="10" y="156" type="line"/>
      <point x="36" y="52"/>
      <point x="115" y="-11"/>
    </contour>
  </outline>
</glyph>
<glyph name="L" format="2">
  <advance width="581"/>
  <unicode hex="004C"/>
  <guideline x="493" y="-24" angle="78.0" identifier="S6248Ism57"/>
  <anchor x="198" y="700" name="top"/>
  <anchor x="239" y="0" name="bottom"/>
  <outline>
    <contour>
      <point x="29" y="0" type="line"/>
      <point x="498" y="0" type="line"/>
      <point x="507" y="43" type="line"/>
      <point x="83" y="43" type="line"/>
      <point x="223" y="700" type="line"/>
      <point x="178" y="700" type="line"/>
    </contour>
  </outline>
</glyph>
<glyph name="M" format="2">
  <advance width="814"/>
  <unicode hex="004D"/>
  <outline>
    <contour>
      <point x="29" y="0" type="line"/>
      <point x="74" y="0" type="line"/>
      <point x="213" y="655" type="line"/>
      <point x="365" y="50" type="line"/>
      <point x="775" y="655" type="line"/>
      <point x="636" y="0" type="line"/>
      <point x="681" y="0" type="line"/>
      <point x="830" y="700" type="line"/>
      <point x="757" y="700" type="line"/>
      <point x="384" y="150" type="line"/>
      <point x="247" y="700" type="line"/>
      <point x="178" y="700" type="line"/>
    </contour>
  </outline>
</glyph>
<glyph name="R" format="2">
  <advance width="616"/>
  <unicode hex="0052"/>
  <anchor x="405" y="700" name="top"/>
  <anchor x="256" y="0" name="bottom"/>
  <outline>
    <contour>
      <point x="29" y="0" type="line"/>
      <point x="74" y="0" type="line"/>
      <point x="140" y="312" type="line"/>
      <point x="389" y="312" type="line"/>
      <point x="484" y="0" type="line"/>
      <point x="530" y="0" type="line"/>
      <point x="434" y="315" type="line"/>
      <point x="551" y="332"/>
      <point x="631" y="418"/>
      <point x="631" y="534" type="curve" smooth="yes"/>
      <point x="631" y="636"/>
      <point x="555" y="700"/>
      <point x="434" y="700" type="curve" smooth="yes"/>
      <point x="178" y="700" type="line"/>
    </contour>
    <contour>
      <point x="150" y="355" type="line"/>
      <point x="214" y="657" type="line"/>
      <point x="433" y="657" type="line" smooth="yes"/>
      <point x="528" y="657"/>
      <point x="585" y="610"/>
      <point x="585" y="531" type="curve" smooth="yes"/>
      <point x="585" y="428"/>
      <point x="504" y="355"/>
      <point x="389" y="355" type="curve" smooth="yes"/>
    </contour>
  </outline>
</glyph>
<glyph name="Y" format="2">
  <advance width="597"/>
  <unicode hex="0059"/>
  <anchor x="396" y="700" name="top"/>
  <outline>
    <contour>
      <point x="223" y="0" type="line"/>
      <point x="268" y="0" type="line"/>
      <point x="329" y="288" type="line"/>
      <point x="688" y="700" type="line"/>
      <point x="631" y="700" type="line"/>
      <point x="314" y="333" type="line"/>
      <point x="152" y="700" type="line"/>
      <point x="104" y="700" type="line"/>
      <point x="285" y="292" type="line"/>
    </contour>
  </outline>
</glyph>
<glyph name="asciicircum" format="2">
  <advance width="600"/>
  <unicode hex="005E"/>
  <outline>
    <contour>
      <point x="117" y="350" type="line"/>
      <point x="166" y="350" type="line"/>
      <point x="388" y="651" type="line"/>
      <point x="482" y="350" type="line"/>
      <point x="526" y="350" type="line"/>
      <point x="416" y="700" type="line"/>
      <point x="375" y="700" type="line"/>
    </contour>
  </outline>
</glyph>
<glyph name="underscore" format="2">
  <advance width="466"/>
  <unicode hex="005F"/>
  <outline>
    <contour>
      <point x="-79" y="-124" type="line"/>
      <point x="389" y="-124" type="line"/>
      <point x="398" y="-80" type="line"/>
      <point x="-70" y="-80" type="line"/>
    </contour>
  </outline>
</glyph>
<glyph name="grave" format="2">
  <advance width="600"/>
  <unicode hex="0060"/>
  <outline>
    <contour>
      <point x="354" y="596" type="line"/>
      <point x="396" y="596" type="line"/>
      <point x="303" y="706" type="line"/>
      <point x="238" y="706" type="line"/>
    </contour>
  </outline>
</glyph>
<glyph name="b" format="2">
  <advance width="560"/>
  <unicode hex="0062"/>
  <outline>
    <contour>
      <point x="249" y="-10" type="curve" smooth="yes"/>
      <point x="397" y="-10"/>
      <point x="518" y="118"/>
      <point x="518" y="274" type="curve" smooth="yes"/>
      <point x="518" y="405"/>
      <point x="427" y="502"/>
      <point x="302" y="502" type="curve" smooth="yes"/>
      <point x="250" y="502"/>
      <point x="200" y="485"/>
      <point x="155" y="451" type="curve"/>
      <point x="210" y="711" type="line"/>
      <point x="165" y="700" type="line"/>
      <point x="16" y="0" type="line"/>
      <point x="59" y="0" type="line"/>
      <point x="75" y="72" type="line"/>
      <point x="113" y="21"/>
      <point x="177" y="-10"/>
    </contour>
    <contour>
      <point x="248" y="32" type="curve" smooth="yes"/>
      <point x="177" y="32"/>
      <point x="111" y="71"/>
      <point x="86" y="126" type="curve"/>
      <point x="143" y="397" type="line"/>
      <point x="184" y="437"/>
      <point x="239" y="460"/>
      <point x="295" y="460" type="curve" smooth="yes"/>
      <point x="400" y="460"/>
      <point x="474" y="382"/>
      <point x="474" y="271" type="curve" smooth="yes"/>
      <point x="474" y="139"/>
      <point x="373" y="32"/>
    </contour>
  </outline>
</glyph>
<glyph name="g" format="2">
  <advance width="563"/>
  <unicode hex="0067"/>
  <note>
Version created Sun Jan 13 16:53:00 2019
</note>
  <guideline x="552" y="519" angle="78.0" identifier="NAKG3lDi2H"/>
  <anchor x="315" y="492" name="top"/>
  <outline>
    <contour>
      <point x="237" y="-214" type="curve" smooth="yes"/>
      <point x="339" y="-214"/>
      <point x="407" y="-154"/>
      <point x="431" y="-43" type="curve" smooth="yes"/>
      <point x="545" y="492" type="line"/>
      <point x="502" y="492" type="line"/>
      <point x="487" y="419" type="line"/>
      <point x="448" y="471"/>
      <point x="384" y="502"/>
      <point x="312" y="502" type="curve" smooth="yes"/>
      <point x="164" y="502"/>
      <point x="43" y="374"/>
      <point x="43" y="218" type="curve" smooth="yes"/>
      <point x="43" y="87"/>
      <point x="134" y="-10"/>
      <point x="259" y="-10" type="curve" smooth="yes"/>
      <point x="312" y="-10"/>
      <point x="363" y="8"/>
      <point x="409" y="43" type="curve"/>
      <point x="389" y="-39" type="line" smooth="yes"/>
      <point x="368" y="-127"/>
      <point x="318" y="-172"/>
      <point x="234" y="-172" type="curve" smooth="yes"/>
      <point x="176" y="-172"/>
      <point x="121" y="-151"/>
      <point x="64" y="-108" type="curve"/>
      <point x="36" y="-140" type="line"/>
      <point x="90" y="-185"/>
      <point x="169" y="-214"/>
    </contour>
    <contour>
      <point x="266" y="32" type="curve" smooth="yes"/>
      <point x="161" y="32"/>
      <point x="87" y="110"/>
      <point x="87" y="221" type="curve" smooth="yes"/>
      <point x="87" y="353"/>
      <point x="188" y="460"/>
      <point x="313" y="460" type="curve" smooth="yes"/>
      <point x="385" y="460"/>
      <point x="451" y="421"/>
      <point x="476" y="365" type="curve"/>
      <point x="420" y="98" type="line"/>
      <point x="379" y="56"/>
      <point x="323" y="32"/>
    </contour>
  </outline>
</glyph>
<glyph name="i" format="2">
  <advance width="179"/>
  <unicode hex="0069"/>
  <anchor x="58" y="0" name="bottom"/>
  <outline>
    <contour>
      <point x="16" y="0" type="line"/>
      <point x="59" y="0" type="line"/>
      <point x="164" y="492" type="line"/>
      <point x="121" y="492" type="line"/>
    </contour>
    <contour>
      <point x="170" y="603" type="curve" smooth="yes"/>
      <point x="192" y="603"/>
      <point x="211" y="621"/>
      <point x="211" y="645" type="curve" smooth="yes"/>
      <point x="211" y="664"/>
      <point x="196" y="679"/>
      <point x="177" y="679" type="curve" smooth="yes"/>
      <point x="155" y="679"/>
      <point x="136" y="661"/>
      <point x="136" y="638" type="curve" smooth="yes"/>
      <point x="136" y="618"/>
      <point x="151" y="603"/>
    </contour>
  </outline>
</glyph>
<glyph name="j" format="2">
  <advance width="178"/>
  <unicode hex="006A"/>
  <guideline x="69" y="245" angle="78.0" identifier="JmSWmKlBo6"/>
  <outline>
    <contour>
      <point x="170" y="603" type="curve" smooth="yes"/>
      <point x="192" y="603"/>
      <point x="211" y="621"/>
      <point x="211" y="644" type="curve" smooth="yes"/>
      <point x="211" y="663"/>
      <point x="196" y="678"/>
      <point x="177" y="678" type="curve" smooth="yes"/>
      <point x="155" y="678"/>
      <point x="136" y="660"/>
      <point x="136" y="637" type="curve" smooth="yes"/>
      <point x="136" y="618"/>
      <point x="151" y="603"/>
    </contour>
    <contour>
      <point x="-87" y="-214" type="curve" smooth="yes"/>
      <point x="-22" y="-214"/>
      <point x="24" y="-173"/>
      <point x="38" y="-105" type="curve" smooth="yes"/>
      <point x="164" y="492" type="line"/>
      <point x="121" y="492" type="line"/>
      <point x="-3" y="-95" type="line" smooth="yes"/>
      <point x="-14" y="-146"/>
      <point x="-37" y="-171"/>
      <point x="-79" y="-171" type="curve" smooth="yes"/>
      <point x="-92" y="-171"/>
      <point x="-106" y="-170"/>
      <point x="-118" y="-165" type="curve"/>
      <point x="-127" y="-209" type="line"/>
      <point x="-114" y="-212"/>
      <point x="-100" y="-214"/>
    </contour>
  </outline>
</glyph>
<glyph name="l" format="2">
  <advance width="178"/>
  <unicode hex="006C"/>
  <guideline x="37" y="0" angle="78.0" color="0.999,0.001,0.001,0.999" identifier="NDvAqCDijy"/>
  <anchor x="186" y="700" name="top"/>
  <anchor x="37" y="0" name="bottom"/>
  <outline>
    <contour>
      <point x="16" y="0" type="line"/>
      <point x="59" y="0" type="line"/>
      <point x="210" y="711" type="line"/>
      <point x="165" y="700" type="line"/>
    </contour>
  </outline>
</glyph>
<glyph name="m" format="2">
  <advance width="821"/>
  <unicode hex="006D"/>
  <guideline x="734" y="137" angle="78.0" identifier="yqfIR87V9v"/>
  <outline>
    <contour>
      <point x="16" y="0" type="line"/>
      <point x="59" y="0" type="line"/>
      <point x="139" y="376" type="line"/>
      <point x="180" y="429"/>
      <point x="234" y="461"/>
      <point x="294" y="461" type="curve" smooth="yes"/>
      <point x="378" y="461"/>
      <point x="423" y="396"/>
      <point x="402" y="296" type="curve" smooth="yes"/>
      <point x="339" y="0" type="line"/>
      <point x="382" y="0" type="line"/>
      <point x="447" y="307" type="line" smooth="yes"/>
      <point x="451" y="326"/>
      <point x="453" y="345"/>
      <point x="452" y="362" type="curve"/>
      <point x="501" y="427"/>
      <point x="558" y="461"/>
      <point x="618" y="461" type="curve" smooth="yes"/>
      <point x="701" y="461"/>
      <point x="746" y="396"/>
      <point x="727" y="305" type="curve" smooth="yes"/>
      <point x="662" y="0" type="line"/>
      <point x="705" y="0" type="line"/>
      <point x="770" y="307" type="line" smooth="yes"/>
      <point x="794" y="422"/>
      <point x="730" y="502"/>
      <point x="627" y="502" type="curve" smooth="yes"/>
      <point x="562" y="502"/>
      <point x="505" y="471"/>
      <point x="445" y="402" type="curve"/>
      <point x="427" y="463"/>
      <point x="373" y="502"/>
      <point x="303" y="502" type="curve" smooth="yes"/>
      <point x="245" y="502"/>
      <point x="196" y="479"/>
      <point x="151" y="433" type="curve"/>
      <point x="164" y="492" type="line"/>
      <point x="121" y="492" type="line"/>
    </contour>
  </outline>
</glyph>
<glyph name="o" format="2">
  <advance width="569"/>
  <unicode hex="006F"/>
  <anchor x="320" y="492" name="top"/>
  <outline>
    <contour>
      <point x="258" y="-10" type="curve" smooth="yes"/>
      <point x="404" y="-10"/>
      <point x="527" y="120"/>
      <point x="527" y="273" type="curve" smooth="yes"/>
      <point x="527" y="401"/>
      <point x="434" y="502"/>
      <point x="312" y="502" type="curve" smooth="yes"/>
      <point x="167" y="502"/>
      <point x="43" y="371"/>
      <point x="43" y="219" type="curve" smooth="yes"/>
      <point x="43" y="90"/>
      <point x="137" y="-10"/>
    </contour>
    <contour>
      <point x="262" y="32" type="curve" smooth="yes"/>
      <point x="161" y="32"/>
      <point x="87" y="112"/>
      <point x="87" y="219" type="curve" smooth="yes"/>
      <point x="87" y="347"/>
      <point x="191" y="460"/>
      <point x="308" y="460" type="curve" smooth="yes"/>
      <point x="409" y="460"/>
      <point x="483" y="380"/>
      <point x="483" y="273" type="curve" smooth="yes"/>
      <point x="483" y="145"/>
      <point x="379" y="32"/>
    </contour>
  </outline>
</glyph>
<glyph name="p" format="2">
  <advance width="560"/>
  <unicode hex="0070"/>
  <outline>
    <contour>
      <point x="-27" y="-204" type="line"/>
      <point x="16" y="-204" type="line"/>
      <point x="75" y="72" type="line"/>
      <point x="113" y="21"/>
      <point x="177" y="-10"/>
      <point x="249" y="-10" type="curve" smooth="yes"/>
      <point x="397" y="-10"/>
      <point x="518" y="118"/>
      <point x="518" y="274" type="curve" smooth="yes"/>
      <point x="518" y="405"/>
      <point x="427" y="502"/>
      <point x="302" y="502" type="curve" smooth="yes"/>
      <point x="250" y="502"/>
      <point x="200" y="485"/>
      <point x="156" y="451" type="curve"/>
      <point x="164" y="492" type="line"/>
      <point x="121" y="492" type="line"/>
    </contour>
    <contour>
      <point x="248" y="32" type="curve" smooth="yes"/>
      <point x="177" y="32"/>
      <point x="111" y="71"/>
      <point x="86" y="126" type="curve"/>
      <point x="143" y="397" type="line"/>
      <point x="184" y="437"/>
      <point x="239" y="460"/>
      <point x="295" y="460" type="curve" smooth="yes"/>
      <point x="400" y="460"/>
      <point x="474" y="382"/>
      <point x="474" y="271" type="curve" smooth="yes"/>
      <point x="474" y="139"/>
      <point x="373" y="32"/>
    </contour>
  </outline>
</glyph>
<glyph name="r" format="2">
  <advance width="312"/>
  <unicode hex="0072"/>
  <anchor x="208" y="492" name="top"/>
  <anchor x="37" y="0" name="bottom"/>
  <outline>
    <contour>
      <point x="16" y="0" type="line"/>
      <point x="59" y="0" type="line"/>
      <point x="135" y="355" type="line"/>
      <point x="174" y="424"/>
      <point x="227" y="460"/>
      <point x="286" y="460" type="curve" smooth="yes"/>
      <point x="303" y="460"/>
      <point x="320" y="457"/>
      <point x="334" y="451" type="curve"/>
      <point x="344" y="496" type="line"/>
      <point x="333" y="500"/>
      <point x="315" y="502"/>
      <point x="296" y="502" type="curve" smooth="yes"/>
      <point x="238" y="502"/>
      <point x="186" y="472"/>
      <point x="149" y="421" type="curve"/>
      <point x="164" y="492" type="line"/>
      <point x="121" y="492" type="line"/>
    </contour>
  </outline>
</glyph>
<glyph name="s" format="2">
  <advance width="417"/>
  <unicode hex="0073"/>
  <note>
Version created Fri Aug  3 17:49:29 2018
</note>
  <anchor x="241" y="492" name="top"/>
  <anchor x="187" y="0" name="bottom"/>
  <outline>
    <contour>
      <point x="187" y="-12" type="curve" smooth="yes"/>
      <point x="294" y="-12"/>
      <point x="376" y="53"/>
      <point x="376" y="140" type="curve" smooth="yes"/>
      <point x="376" y="205"/>
      <point x="337" y="240"/>
      <point x="251" y="261" type="curve" smooth="yes"/>
      <point x="177" y="279" type="line" smooth="yes"/>
      <point x="112" y="295"/>
      <point x="90" y="318"/>
      <point x="90" y="360" type="curve" smooth="yes"/>
      <point x="90" y="420"/>
      <point x="141" y="461"/>
      <point x="218" y="461" type="curve" smooth="yes"/>
      <point x="276" y="461"/>
      <point x="329" y="436"/>
      <point x="380" y="389" type="curve"/>
      <point x="410" y="421" type="line"/>
      <point x="353" y="474"/>
      <point x="287" y="502"/>
      <point x="219" y="502" type="curve" smooth="yes"/>
      <point x="118" y="502"/>
      <point x="46" y="443"/>
      <point x="46" y="358" type="curve" smooth="yes"/>
      <point x="46" y="294"/>
      <point x="83" y="257"/>
      <point x="167" y="237" type="curve" smooth="yes"/>
      <point x="241" y="219" type="line" smooth="yes"/>
      <point x="308" y="203"/>
      <point x="332" y="180"/>
      <point x="332" y="138" type="curve" smooth="yes"/>
      <point x="332" y="76"/>
      <point x="270" y="29"/>
      <point x="186" y="29" type="curve" smooth="yes"/>
      <point x="121" y="29"/>
      <point x="62" y="60"/>
      <point x="24" y="111" type="curve"/>
      <point x="-11" y="84" type="line"/>
      <point x="35" y="23"/>
      <point x="107" y="-12"/>
    </contour>
  </outline>
</glyph>
<glyph name="t" format="2">
  <advance width="330"/>
  <unicode hex="0074"/>
  <anchor x="183" y="0" name="bottom"/>
  <outline>
    <contour>
      <point x="199" y="-10" type="curve" smooth="yes"/>
      <point x="220" y="-10"/>
      <point x="241" y="-7"/>
      <point x="262" y="-1" type="curve"/>
      <point x="271" y="42" type="line"/>
      <point x="244" y="34"/>
      <point x="230" y="31"/>
      <point x="215" y="31" type="curve" smooth="yes"/>
      <point x="147" y="31"/>
      <point x="125" y="55"/>
      <point x="138" y="115" type="curve" smooth="yes"/>
      <point x="210" y="452" type="line"/>
      <point x="356" y="452" type="line"/>
      <point x="365" y="492" type="line"/>
      <point x="219" y="492" type="line"/>
      <point x="248" y="630" type="line"/>
      <point x="202" y="616" type="line"/>
      <point x="175" y="492" type="line"/>
      <point x="69" y="492" type="line"/>
      <point x="60" y="452" type="line"/>
      <point x="167" y="452" type="line"/>
      <point x="93" y="106" type="line" smooth="yes"/>
      <point x="77" y="32"/>
      <point x="116" y="-10"/>
    </contour>
  </outline>
</glyph>
<glyph name="u" format="2">
  <advance width="519"/>
  <unicode hex="0075"/>
  <anchor x="312" y="492" name="top"/>
  <anchor x="398" y="0" name="bottom"/>
  <outline>
    <contour>
      <point x="212" y="-10" type="curve" smooth="yes"/>
      <point x="272" y="-10"/>
      <point x="324" y="13"/>
      <point x="368" y="58" type="curve"/>
      <point x="356" y="0" type="line"/>
      <point x="399" y="0" type="line"/>
      <point x="504" y="492" type="line"/>
      <point x="461" y="492" type="line"/>
      <point x="380" y="113" type="line"/>
      <point x="341" y="62"/>
      <point x="283" y="31"/>
      <point x="220" y="31" type="curve" smooth="yes"/>
      <point x="126" y="31"/>
      <point x="76" y="98"/>
      <point x="98" y="202" type="curve" smooth="yes"/>
      <point x="160" y="492" type="line"/>
      <point x="117" y="492" type="line"/>
      <point x="55" y="195" type="line" smooth="yes"/>
      <point x="29" y="72"/>
      <point x="101" y="-10"/>
    </contour>
  </outline>
</glyph>
<glyph name="y" format="2">
  <advance width="471"/>
  <unicode hex="0079"/>
  <anchor x="288" y="492" name="top"/>
  <outline>
    <contour>
      <point x="-17" y="-214" type="curve" smooth="yes"/>
      <point x="46" y="-214"/>
      <point x="93" y="-180"/>
      <point x="145" y="-98" type="curve" smooth="yes"/>
      <point x="517" y="492" type="line"/>
      <point x="468" y="492" type="line"/>
      <point x="193" y="54" type="line"/>
      <point x="105" y="492" type="line"/>
      <point x="60" y="492" type="line"/>
      <point x="159" y="2" type="line"/>
      <point x="99" y="-93" type="line" smooth="yes"/>
      <point x="66" y="-144"/>
      <point x="30" y="-170"/>
      <point x="-11" y="-170" type="curve" smooth="yes"/>
      <point x="-25" y="-170"/>
      <point x="-41" y="-168"/>
      <point x="-52" y="-164" type="curve"/>
      <point x="-61" y="-208" type="line"/>
      <point x="-45" y="-212"/>
      <point x="-29" y="-214"/>
    </contour>
  </outline>
</glyph>
<glyph name="z" format="2">
  <advance width="437"/>
  <unicode hex="007A"/>
  <guideline x="440" y="447" angle="78.0" identifier="SuPKpJAxXr"/>
  <anchor x="271" y="492" name="top"/>
  <outline>
    <contour>
      <point x="-20" y="0" type="line"/>
      <point x="346" y="0" type="line"/>
      <point x="355" y="42" type="line"/>
      <point x="48" y="42" type="line"/>
      <point x="441" y="453" type="line"/>
      <point x="449" y="492" type="line"/>
      <point x="88" y="492" type="line"/>
      <point x="79" y="450" type="line"/>
      <point x="381" y="450" type="line"/>
      <point x="-12" y="39" type="line"/>
    </contour>
  </outline>
</glyph>
<glyph name="bar" format="2">
  <advance width="245"/>
  <unicode hex="007C"/>
  <guideline x="121" y="335" angle="78.0" identifier="qY6Etbm8xS"/>
  <outline>
    <contour>
      <point x="7" y="-204" type="line"/>
      <point x="48" y="-204" type="line"/>
      <point x="240" y="700" type="line"/>
      <point x="199" y="700" type="line"/>
    </contour>
  </outline>
</glyph>
<glyph name="asciitilde" format="2">
  <advance width="600"/>
  <unicode hex="007E"/>
  <outline>
    <contour>
      <point x="126" y="308" type="line"/>
      <point x="145" y="373"/>
      <point x="180" y="404"/>
      <point x="221" y="404" type="curve" smooth="yes"/>
      <point x="240" y="404"/>
      <point x="259" y="400"/>
      <point x="285" y="383" type="curve" smooth="yes"/>
      <point x="348" y="342" type="line" smooth="yes"/>
      <point x="379" y="322"/>
      <point x="403" y="312"/>
      <point x="438" y="312" type="curve" smooth="yes"/>
      <point x="489" y="312"/>
      <point x="550" y="360"/>
      <point x="568" y="446" type="curve"/>
      <point x="532" y="452" type="line"/>
      <point x="513" y="387"/>
      <point x="478" y="356"/>
      <point x="437" y="356" type="curve" smooth="yes"/>
      <point x="418" y="356"/>
      <point x="399" y="360"/>
      <point x="373" y="377" type="curve" smooth="yes"/>
      <point x="310" y="418" type="line" smooth="yes"/>
      <point x="279" y="438"/>
      <point x="255" y="448"/>
      <point x="220" y="448" type="curve" smooth="yes"/>
      <point x="169" y="448"/>
      <point x="108" y="400"/>
      <point x="90" y="314" type="curve"/>
    </contour>
  </outline>
</glyph>
<glyph name="cent" format="2">
  <advance width="498"/>
  <unicode hex="00A2"/>
  <outline>
    <contour>
      <point x="179" y="-116" type="line"/>
      <point x="220" y="-116" type="line"/>
      <point x="243" y="-9" type="line"/>
      <point x="309" y="-14"/>
      <point x="374" y="7"/>
      <point x="437" y="52" type="curve"/>
      <point x="411" y="88" type="line"/>
      <point x="354" y="48"/>
      <point x="307" y="31"/>
      <point x="252" y="32" type="curve"/>
      <point x="342" y="457" type="line"/>
      <point x="389" y="448"/>
      <point x="433" y="420"/>
      <point x="462" y="378" type="curve"/>
      <point x="495" y="407" type="line"/>
      <point x="459" y="455"/>
      <point x="407" y="488"/>
      <point x="351" y="498" type="curve"/>
      <point x="374" y="608" type="line"/>
      <point x="333" y="608" type="line"/>
      <point x="310" y="502" type="line"/>
      <point x="167" y="502"/>
      <point x="43" y="371"/>
      <point x="43" y="219" type="curve" smooth="yes"/>
      <point x="43" y="112"/>
      <point x="108" y="23"/>
      <point x="203" y="-3" type="curve"/>
    </contour>
    <contour>
      <point x="212" y="39" type="line"/>
      <point x="136" y="61"/>
      <point x="87" y="132"/>
      <point x="87" y="219" type="curve" smooth="yes"/>
      <point x="87" y="344"/>
      <point x="186" y="456"/>
      <point x="301" y="460" type="curve"/>
    </contour>
  </outline>
</glyph>
<glyph name="uni00A6" format="2">
  <advance width="245"/>
  <unicode hex="00A6"/>
  <guideline x="176" y="292" angle="0.0" identifier="ClaBlADU7P"/>
  <guideline x="159" y="204" angle="0.0" identifier="gnkGUokBKe"/>
  <outline>
    <contour>
      <point x="153" y="291" type="line"/>
      <point x="240" y="700" type="line"/>
      <point x="199" y="700" type="line"/>
      <point x="112" y="291" type="line"/>
    </contour>
    <contour>
      <point x="7" y="-204" type="line"/>
      <point x="48" y="-204" type="line"/>
      <point x="134" y="205" type="line"/>
      <point x="93" y="205" type="line"/>
    </contour>
  </outline>
</glyph>
<glyph name="dieresis" format="2">
  <advance width="600"/>
  <unicode hex="00A8"/>
  <guideline x="364" y="544" angle="78.0" identifier="G6pga27Q2X"/>
  <guideline x="384" y="640" angle="90.0" identifier="HxZdKMpyy6"/>
  <outline>
    <contour>
      <point x="302" y="603" type="curve" smooth="yes"/>
      <point x="325" y="603"/>
      <point x="343" y="621"/>
      <point x="343" y="645" type="curve" smooth="yes"/>
      <point x="343" y="664"/>
      <point x="328" y="679"/>
      <point x="310" y="679" type="curve" smooth="yes"/>
      <point x="287" y="679"/>
      <point x="269" y="661"/>
      <point x="269" y="638" type="curve" smooth="yes"/>
      <point x="269" y="618"/>
      <point x="284" y="603"/>
    </contour>
    <contour>
      <point x="459" y="603" type="curve" smooth="yes"/>
      <point x="482" y="603"/>
      <point x="500" y="621"/>
      <point x="500" y="645" type="curve" smooth="yes"/>
      <point x="500" y="664"/>
      <point x="485" y="679"/>
      <point x="467" y="679" type="curve" smooth="yes"/>
      <point x="444" y="679"/>
      <point x="426" y="661"/>
      <point x="426" y="638" type="curve" smooth="yes"/>
      <point x="426" y="618"/>
      <point x="441" y="603"/>
    </contour>
  </outline>
</glyph>
<glyph name="uni00AC" format="2">
  <advance width="600"/>
  <unicode hex="00AC"/>
  <guideline x="192" y="274" angle="0.0" identifier="mD6vDCMZ7V"/>
  <outline>
    <contour>
      <point x="396" y="0" type="line"/>
      <point x="437" y="0" type="line"/>
      <point x="501" y="300" type="line"/>
      <point x="64" y="300" type="line"/>
      <point x="55" y="259" type="line"/>
      <point x="451" y="259" type="line"/>
    </contour>
  </outline>
</glyph>
<glyph name="registered" format="2">
  <advance width="480"/>
  <unicode hex="00AE"/>
  <outline>
    <contour>
      <point x="278" y="312" type="curve" smooth="yes"/>
      <point x="394" y="312"/>
      <point x="491" y="413"/>
      <point x="491" y="535" type="curve" smooth="yes"/>
      <point x="491" y="638"/>
      <point x="419" y="711"/>
      <point x="316" y="711" type="curve" smooth="yes"/>
      <point x="200" y="711"/>
      <point x="103" y="610"/>
      <point x="103" y="488" type="curve" smooth="yes"/>
      <point x="103" y="385"/>
      <point x="175" y="312"/>
    </contour>
    <contour>
      <point x="278" y="342" type="curve" smooth="yes"/>
      <point x="193" y="342"/>
      <point x="135" y="401"/>
      <point x="135" y="488" type="curve" smooth="yes"/>
      <point x="135" y="593"/>
      <point x="217" y="681"/>
      <point x="316" y="681" type="curve" smooth="yes"/>
      <point x="401" y="681"/>
      <point x="459" y="622"/>
      <point x="459" y="535" type="curve" smooth="yes"/>
      <point x="459" y="430"/>
      <point x="377" y="342"/>
    </contour>
    <contour>
      <point x="212" y="419" type="line"/>
      <point x="240" y="419" type="line"/>
      <point x="255" y="491" type="line"/>
      <point x="295" y="491" type="line"/>
      <point x="325" y="419" type="line"/>
      <point x="355" y="419" type="line"/>
      <point x="326" y="495" type="line"/>
      <point x="352" y="504"/>
      <point x="372" y="527"/>
      <point x="372" y="554" type="curve" smooth="yes"/>
      <point x="372" y="588"/>
      <point x="352" y="607"/>
      <point x="316" y="607" type="curve" smooth="yes"/>
      <point x="252" y="607" type="line"/>
    </contour>
    <contour>
      <point x="311" y="583" type="line" smooth="yes"/>
      <point x="334" y="583"/>
      <point x="344" y="573"/>
      <point x="344" y="552" type="curve" smooth="yes"/>
      <point x="344" y="530"/>
      <point x="328" y="515"/>
      <point x="304" y="515" type="curve" smooth="yes"/>
      <point x="260" y="515" type="line"/>
      <point x="276" y="583" type="line"/>
    </contour>
  </outline>
</glyph>
<glyph name="macron" format="2">
  <advance width="600"/>
  <unicode hex="00AF"/>
  <guideline x="365" y="549" angle="78.0" identifier="TF0TaKjdV8"/>
  <outline>
    <contour>
      <point x="250" y="620" type="line"/>
      <point x="511" y="620" type="line"/>
      <point x="519" y="657" type="line"/>
      <point x="257" y="657" type="line"/>
    </contour>
  </outline>
</glyph>
<glyph name="degree" format="2">
  <advance width="386"/>
  <unicode hex="00B0"/>
  <outline>
    <contour>
      <point x="248" y="431" type="curve" smooth="yes"/>
      <point x="334" y="431"/>
      <point x="403" y="500"/>
      <point x="403" y="585" type="curve" smooth="yes"/>
      <point x="403" y="655"/>
      <point x="347" y="711"/>
      <point x="277" y="711" type="curve" smooth="yes"/>
      <point x="191" y="711"/>
      <point x="122" y="642"/>
      <point x="122" y="557" type="curve" smooth="yes"/>
      <point x="122" y="487"/>
      <point x="178" y="431"/>
    </contour>
    <contour>
      <point x="250" y="469" type="curve" smooth="yes"/>
      <point x="201" y="469"/>
      <point x="162" y="510"/>
      <point x="162" y="561" type="curve" smooth="yes"/>
      <point x="162" y="623"/>
      <point x="213" y="673"/>
      <point x="275" y="673" type="curve" smooth="yes"/>
      <point x="324" y="673"/>
      <point x="363" y="632"/>
      <point x="363" y="581" type="curve" smooth="yes"/>
      <point x="363" y="519"/>
      <point x="312" y="469"/>
    </contour>
  </outline>
</glyph>
<glyph name="uni00B5" format="2">
  <advance width="523"/>
  <unicode hex="00B5"/>
  <outline>
    <contour>
      <point x="-26" y="-204" type="line"/>
      <point x="17" y="-204" type="line"/>
      <point x="76" y="73" type="line"/>
      <point x="100" y="21"/>
      <point x="151" y="-10"/>
      <point x="216" y="-10" type="curve" smooth="yes"/>
      <point x="276" y="-10"/>
      <point x="328" y="13"/>
      <point x="372" y="58" type="curve"/>
      <point x="360" y="0" type="line"/>
      <point x="403" y="0" type="line"/>
      <point x="508" y="492" type="line"/>
      <point x="465" y="492" type="line"/>
      <point x="384" y="113" type="line"/>
      <point x="345" y="62"/>
      <point x="287" y="31"/>
      <point x="224" y="31" type="curve" smooth="yes"/>
      <point x="136" y="31"/>
      <point x="86" y="90"/>
      <point x="99" y="183" type="curve"/>
      <point x="164" y="492" type="line"/>
      <point x="121" y="492" type="line"/>
    </contour>
  </outline>
</glyph>
<glyph name="paragraph" format="2">
  <advance width="616"/>
  <unicode hex="00B6"/>
  <outline>
    <contour>
      <point x="263" y="0" type="line"/>
      <point x="308" y="0" type="line"/>
      <point x="374" y="309" type="line"/>
      <point x="504" y="309" type="line"/>
      <point x="438" y="0" type="line"/>
      <point x="483" y="0" type="line"/>
      <point x="632" y="700" type="line"/>
      <point x="339" y="700" type="line" smooth="yes"/>
      <point x="194" y="700"/>
      <point x="96" y="608"/>
      <point x="96" y="482" type="curve" smooth="yes"/>
      <point x="96" y="373"/>
      <point x="173" y="309"/>
      <point x="295" y="309" type="curve" smooth="yes"/>
      <point x="329" y="309" type="line"/>
    </contour>
    <contour>
      <point x="384" y="352" type="line"/>
      <point x="449" y="657" type="line"/>
      <point x="578" y="657" type="line"/>
      <point x="513" y="352" type="line"/>
    </contour>
    <contour>
      <point x="294" y="352" type="line" smooth="yes"/>
      <point x="199" y="352"/>
      <point x="142" y="398"/>
      <point x="142" y="484" type="curve" smooth="yes"/>
      <point x="142" y="583"/>
      <point x="222" y="657"/>
      <point x="339" y="657" type="curve" smooth="yes"/>
      <point x="404" y="657" type="line"/>
      <point x="339" y="352" type="line"/>
    </contour>
  </outline>
</glyph>
<glyph name="periodcentered" format="2">
  <advance width="250"/>
  <unicode hex="00B7"/>
  <outline>
    <contour>
      <point x="124" y="242" type="curve" smooth="yes"/>
      <point x="147" y="242"/>
      <point x="165" y="260"/>
      <point x="165" y="284" type="curve" smooth="yes"/>
      <point x="165" y="303"/>
      <point x="150" y="318"/>
      <point x="132" y="318" type="curve" smooth="yes"/>
      <point x="109" y="318"/>
      <point x="91" y="300"/>
      <point x="91" y="277" type="curve" smooth="yes"/>
      <point x="91" y="257"/>
      <point x="106" y="242"/>
    </contour>
  </outline>
</glyph>
<glyph name="cedilla" format="2">
  <advance width="600"/>
  <unicode hex="00B8"/>
  <guideline x="246" y="0" angle="0.0" color="0.999,0.001,0.001,0.999" identifier="iVRxW6xjfL"/>
  <outline>
    <contour>
      <point x="201" y="-224" type="curve" smooth="yes"/>
      <point x="264" y="-224"/>
      <point x="312" y="-186"/>
      <point x="312" y="-130" type="curve" smooth="yes"/>
      <point x="312" y="-92"/>
      <point x="285" y="-65"/>
      <point x="233" y="-60" type="curve"/>
      <point x="262" y="0" type="line"/>
      <point x="230" y="0" type="line"/>
      <point x="187" y="-89" type="line"/>
      <point x="211" y="-89" type="line" smooth="yes"/>
      <point x="250" y="-89"/>
      <point x="278" y="-105"/>
      <point x="278" y="-135" type="curve" smooth="yes"/>
      <point x="278" y="-168"/>
      <point x="250" y="-193"/>
      <point x="201" y="-193" type="curve" smooth="yes"/>
      <point x="170" y="-193"/>
      <point x="146" y="-182"/>
      <point x="123" y="-157" type="curve"/>
      <point x="97" y="-180" type="line"/>
      <point x="118" y="-207"/>
      <point x="158" y="-224"/>
    </contour>
  </outline>
</glyph>
<glyph name="ordmasculine" format="2">
  <advance width="446"/>
  <unicode hex="00BA"/>
  <outline>
    <contour>
      <point x="268" y="325" type="curve" smooth="yes"/>
      <point x="376" y="325"/>
      <point x="464" y="419"/>
      <point x="464" y="534" type="curve" smooth="yes"/>
      <point x="464" y="632"/>
      <point x="388" y="711"/>
      <point x="295" y="711" type="curve" smooth="yes"/>
      <point x="187" y="711"/>
      <point x="99" y="617"/>
      <point x="99" y="502" type="curve" smooth="yes"/>
      <point x="99" y="404"/>
      <point x="175" y="325"/>
    </contour>
    <contour>
      <point x="270" y="363" type="curve" smooth="yes"/>
      <point x="197" y="363"/>
      <point x="138" y="425"/>
      <point x="138" y="503" type="curve" smooth="yes"/>
      <point x="138" y="597"/>
      <point x="208" y="673"/>
      <point x="294" y="673" type="curve" smooth="yes"/>
      <point x="366" y="673"/>
      <point x="425" y="610"/>
      <point x="425" y="533" type="curve" smooth="yes"/>
      <point x="425" y="439"/>
      <point x="355" y="363"/>
    </contour>
  </outline>
</glyph>
<glyph name="guillemotright" format="2">
  <advance width="555"/>
  <unicode hex="00BB"/>
  <outline>
    <contour>
      <point x="191" y="0" type="line"/>
      <point x="245" y="0" type="line"/>
      <point x="520" y="246" type="line"/>
      <point x="346" y="492" type="line"/>
      <point x="300" y="492" type="line"/>
      <point x="471" y="250" type="line"/>
    </contour>
    <contour>
      <point x="0" y="0" type="line"/>
      <point x="54" y="0" type="line"/>
      <point x="329" y="246" type="line"/>
      <point x="155" y="492" type="line"/>
      <point x="109" y="492" type="line"/>
      <point x="280" y="250" type="line"/>
    </contour>
  </outline>
</glyph>
<glyph name="Ccedilla" format="2">
  <advance width="710"/>
  <unicode hex="00C7"/>
  <outline>
    <contour>
      <point x="349" y="-224" type="curve" smooth="yes"/>
      <point x="412" y="-224"/>
      <point x="460" y="-186"/>
      <point x="460" y="-130" type="curve" smooth="yes"/>
      <point x="460" y="-92"/>
      <point x="433" y="-65"/>
      <point x="381" y="-60" type="curve"/>
      <point x="405" y="-11" type="line"/>
      <point x="499" y="-8"/>
      <point x="594" y="27"/>
      <point x="664" y="89" type="curve"/>
      <point x="636" y="123" type="line"/>
      <point x="569" y="64"/>
      <point x="483" y="32"/>
      <point x="397" y="32" type="curve" smooth="yes"/>
      <point x="226" y="32"/>
      <point x="115" y="166"/>
      <point x="115" y="322" type="curve" smooth="yes"/>
      <point x="115" y="509"/>
      <point x="260" y="668"/>
      <point x="441" y="668" type="curve" smooth="yes"/>
      <point x="542" y="668"/>
      <point x="625" y="630"/>
      <point x="678" y="563" type="curve"/>
      <point x="712" y="589" type="line"/>
      <point x="652" y="667"/>
      <point x="554" y="711"/>
      <point x="444" y="711" type="curve" smooth="yes"/>
      <point x="242" y="711"/>
      <point x="69" y="535"/>
      <point x="69" y="320" type="curve" smooth="yes"/>
      <point x="69" y="139"/>
      <point x="199" y="0"/>
      <point x="373" y="-10" type="curve"/>
      <point x="335" y="-89" type="line"/>
      <point x="359" y="-89" type="line" smooth="yes"/>
      <point x="398" y="-89"/>
      <point x="426" y="-105"/>
      <point x="426" y="-135" type="curve" smooth="yes"/>
      <point x="426" y="-168"/>
      <point x="398" y="-193"/>
      <point x="349" y="-193" type="curve" smooth="yes"/>
      <point x="318" y="-193"/>
      <point x="294" y="-182"/>
      <point x="271" y="-157" type="curve"/>
      <point x="245" y="-180" type="line"/>
      <point x="266" y="-207"/>
      <point x="306" y="-224"/>
    </contour>
  </outline>
</glyph>
<glyph name="Oslash" format="2">
  <advance width="793"/>
  <unicode hex="00D8"/>
  <outline>
    <contour>
      <point x="388" y="-11" type="curve" smooth="yes"/>
      <point x="596" y="-11"/>
      <point x="770" y="175"/>
      <point x="770" y="386" type="curve" smooth="yes"/>
      <point x="770" y="467"/>
      <point x="744" y="539"/>
      <point x="699" y="594" type="curve"/>
      <point x="807" y="700" type="line"/>
      <point x="744" y="700" type="line"/>
      <point x="669" y="627" type="line"/>
      <point x="613" y="680"/>
      <point x="537" y="711"/>
      <point x="450" y="711" type="curve" smooth="yes"/>
      <point x="244" y="711"/>
      <point x="68" y="528"/>
      <point x="68" y="314" type="curve" smooth="yes"/>
      <point x="68" y="233"/>
      <point x="94" y="161"/>
      <point x="139" y="106" type="curve"/>
      <point x="31" y="0" type="line"/>
      <point x="94" y="0" type="line"/>
      <point x="169" y="73" type="line"/>
      <point x="225" y="20"/>
      <point x="301" y="-11"/>
    </contour>
    <contour>
      <point x="171" y="137" type="line"/>
      <point x="134" y="187"/>
      <point x="114" y="249"/>
      <point x="114" y="316" type="curve" smooth="yes"/>
      <point x="114" y="505"/>
      <point x="263" y="668"/>
      <point x="447" y="668" type="curve" smooth="yes"/>
      <point x="525" y="668"/>
      <point x="590" y="640"/>
      <point x="638" y="596" type="curve"/>
    </contour>
    <contour>
      <point x="391" y="32" type="curve" smooth="yes"/>
      <point x="313" y="32"/>
      <point x="248" y="60"/>
      <point x="200" y="104" type="curve"/>
      <point x="667" y="563" type="line"/>
      <point x="704" y="513"/>
      <point x="724" y="451"/>
      <point x="724" y="384" type="curve" smooth="yes"/>
      <point x="724" y="195"/>
      <point x="575" y="32"/>
    </contour>
  </outline>
</glyph>
<glyph name="germandbls" format="2">
  <advance width="567"/>
  <unicode hex="00DF"/>
  <guideline x="72" y="265" angle="78.0" identifier="sfh06G4lsL"/>
  <outline>
    <contour>
      <point x="352" y="-10" type="curve" smooth="yes"/>
      <point x="452" y="-10"/>
      <point x="526" y="50"/>
      <point x="526" y="132" type="curve" smooth="yes"/>
      <point x="526" y="192"/>
      <point x="496" y="229"/>
      <point x="425" y="260" type="curve" smooth="yes"/>
      <point x="362" y="287" type="line" smooth="yes"/>
      <point x="332" y="300"/>
      <point x="319" y="318"/>
      <point x="319" y="349" type="curve" smooth="yes"/>
      <point x="319" y="446"/>
      <point x="539" y="438"/>
      <point x="539" y="589" type="curve" smooth="yes"/>
      <point x="539" y="675"/>
      <point x="468" y="740"/>
      <point x="374" y="740" type="curve" smooth="yes"/>
      <point x="244" y="740"/>
      <point x="157" y="665"/>
      <point x="128" y="527" type="curve" smooth="yes"/>
      <point x="16" y="0" type="line"/>
      <point x="61" y="0" type="line"/>
      <point x="172" y="519" type="line" smooth="yes"/>
      <point x="197" y="637"/>
      <point x="266" y="698"/>
      <point x="374" y="698" type="curve" smooth="yes"/>
      <point x="443" y="698"/>
      <point x="495" y="652"/>
      <point x="495" y="589" type="curve" smooth="yes"/>
      <point x="495" y="466"/>
      <point x="275" y="481"/>
      <point x="275" y="349" type="curve" smooth="yes"/>
      <point x="275" y="303"/>
      <point x="298" y="269"/>
      <point x="344" y="249" type="curve" smooth="yes"/>
      <point x="407" y="222" type="line" smooth="yes"/>
      <point x="462" y="199"/>
      <point x="482" y="175"/>
      <point x="482" y="132" type="curve" smooth="yes"/>
      <point x="482" y="73"/>
      <point x="428" y="32"/>
      <point x="352" y="32" type="curve" smooth="yes"/>
      <point x="291" y="32"/>
      <point x="241" y="53"/>
      <point x="216" y="89" type="curve"/>
      <point x="180" y="65" type="line"/>
      <point x="213" y="18"/>
      <point x="277" y="-10"/>
    </contour>
  </outline>
</glyph>
<glyph name="ccedilla" format="2">
  <advance width="493"/>
  <unicode hex="00E7"/>
  <outline>
    <contour>
      <point x="216" y="-224" type="curve" smooth="yes"/>
      <point x="279" y="-224"/>
      <point x="327" y="-186"/>
      <point x="327" y="-130" type="curve" smooth="yes"/>
      <point x="327" y="-92"/>
      <point x="300" y="-65"/>
      <point x="248" y="-60" type="curve"/>
      <point x="272" y="-10" type="line"/>
      <point x="328" y="-7"/>
      <point x="383" y="13"/>
      <point x="437" y="52" type="curve"/>
      <point x="411" y="88" type="line"/>
      <point x="359" y="51"/>
      <point x="309" y="32"/>
      <point x="262" y="32" type="curve" smooth="yes"/>
      <point x="161" y="32"/>
      <point x="87" y="112"/>
      <point x="87" y="219" type="curve" smooth="yes"/>
      <point x="87" y="347"/>
      <point x="191" y="460"/>
      <point x="308" y="460" type="curve" smooth="yes"/>
      <point x="369" y="460"/>
      <point x="426" y="429"/>
      <point x="462" y="378" type="curve"/>
      <point x="495" y="407" type="line"/>
      <point x="451" y="466"/>
      <point x="381" y="502"/>
      <point x="312" y="502" type="curve" smooth="yes"/>
      <point x="167" y="502"/>
      <point x="43" y="371"/>
      <point x="43" y="219" type="curve" smooth="yes"/>
      <point x="43" y="96"/>
      <point x="128" y="0"/>
      <point x="241" y="-9" type="curve"/>
      <point x="202" y="-89" type="line"/>
      <point x="226" y="-89" type="line" smooth="yes"/>
      <point x="265" y="-89"/>
      <point x="293" y="-105"/>
      <point x="293" y="-135" type="curve" smooth="yes"/>
      <point x="293" y="-168"/>
      <point x="265" y="-193"/>
      <point x="216" y="-193" type="curve" smooth="yes"/>
      <point x="185" y="-193"/>
      <point x="161" y="-182"/>
      <point x="138" y="-157" type="curve"/>
      <point x="112" y="-180" type="line"/>
      <point x="133" y="-207"/>
      <point x="173" y="-224"/>
    </contour>
  </outline>
</glyph>
<glyph name="eth" format="2">
  <advance width="591"/>
  <unicode hex="00F0"/>
  <outline>
    <contour>
      <point x="260" y="-10" type="curve" smooth="yes"/>
      <point x="435" y="-10"/>
      <point x="550" y="147"/>
      <point x="550" y="385" type="curve" smooth="yes"/>
      <point x="550" y="469"/>
      <point x="526" y="546"/>
      <point x="481" y="607" type="curve"/>
      <point x="600" y="662" type="line"/>
      <point x="586" y="700" type="line"/>
      <point x="454" y="639" type="line"/>
      <point x="421" y="672"/>
      <point x="381" y="698"/>
      <point x="334" y="717" type="curve"/>
      <point x="317" y="683" type="line"/>
      <point x="351" y="670"/>
      <point x="388" y="646"/>
      <point x="416" y="621" type="curve"/>
      <point x="314" y="574" type="line"/>
      <point x="328" y="536" type="line"/>
      <point x="443" y="589" type="line"/>
      <point x="491" y="527"/>
      <point x="513" y="445"/>
      <point x="509" y="351" type="curve"/>
      <point x="482" y="441"/>
      <point x="404" y="494"/>
      <point x="311" y="494" type="curve" smooth="yes"/>
      <point x="162" y="494"/>
      <point x="44" y="366"/>
      <point x="44" y="212" type="curve" smooth="yes"/>
      <point x="44" y="86"/>
      <point x="131" y="-10"/>
    </contour>
    <contour>
      <point x="263" y="32" type="curve" smooth="yes"/>
      <point x="156" y="32"/>
      <point x="88" y="111"/>
      <point x="88" y="214" type="curve" smooth="yes"/>
      <point x="88" y="343"/>
      <point x="190" y="452"/>
      <point x="310" y="452" type="curve" smooth="yes"/>
      <point x="417" y="452"/>
      <point x="485" y="373"/>
      <point x="485" y="270" type="curve" smooth="yes"/>
      <point x="485" y="141"/>
      <point x="383" y="32"/>
    </contour>
  </outline>
</glyph>
<glyph name="thorn" format="2">
  <advance width="560"/>
  <unicode hex="00FE"/>
  <guideline x="95" y="364" angle="78.0" identifier="EFhl2XSQWb"/>
  <outline>
    <contour>
      <point x="-27" y="-204" type="line"/>
      <point x="16" y="-204" type="line"/>
      <point x="75" y="72" type="line"/>
      <point x="113" y="21"/>
      <point x="177" y="-10"/>
      <point x="249" y="-10" type="curve" smooth="yes"/>
      <point x="397" y="-10"/>
      <point x="518" y="118"/>
      <point x="518" y="274" type="curve" smooth="yes"/>
      <point x="518" y="405"/>
      <point x="427" y="502"/>
      <point x="302" y="502" type="curve" smooth="yes"/>
      <point x="250" y="502"/>
      <point x="200" y="485"/>
      <point x="156" y="452" type="curve"/>
      <point x="210" y="711" type="line"/>
      <point x="165" y="700" type="line"/>
    </contour>
    <contour>
      <point x="295" y="460" type="curve" smooth="yes"/>
      <point x="400" y="460"/>
      <point x="474" y="382"/>
      <point x="474" y="271" type="curve" smooth="yes"/>
      <point x="474" y="139"/>
      <point x="373" y="32"/>
      <point x="248" y="32" type="curve" smooth="yes"/>
      <point x="177" y="32"/>
      <point x="111" y="71"/>
      <point x="86" y="126" type="curve"/>
      <point x="143" y="397" type="line"/>
      <point x="184" y="437"/>
      <point x="239" y="460"/>
    </contour>
  </outline>
</glyph>
<glyph name="aogonek" format="2">
  <advance width="489"/>
  <unicode hex="0105"/>
  <outline>
    <contour>
      <point x="286" y="-222" type="curve" smooth="yes"/>
      <point x="308" y="-222"/>
      <point x="327" y="-217"/>
      <point x="345" y="-209" type="curve"/>
      <point x="341" y="-178" type="line"/>
      <point x="326" y="-185"/>
      <point x="308" y="-189"/>
      <point x="292" y="-189" type="curve" smooth="yes"/>
      <point x="260" y="-189"/>
      <point x="238" y="-170"/>
      <point x="238" y="-143" type="curve" smooth="yes"/>
      <point x="238" y="-99"/>
      <point x="269" y="-55"/>
      <point x="377" y="0" type="curve"/>
      <point x="445" y="318" type="line" smooth="yes"/>
      <point x="471" y="441"/>
      <point x="397" y="502"/>
      <point x="281" y="502" type="curve" smooth="yes"/>
      <point x="229" y="502"/>
      <point x="177" y="489"/>
      <point x="109" y="459" type="curve"/>
      <point x="124" y="421" type="line"/>
      <point x="186" y="449"/>
      <point x="234" y="463"/>
      <point x="285" y="463" type="curve" smooth="yes"/>
      <point x="384" y="463"/>
      <point x="421" y="408"/>
      <point x="401" y="314" type="curve" smooth="yes"/>
      <point x="384" y="233" type="line"/>
      <point x="341" y="268"/>
      <point x="280" y="289"/>
      <point x="217" y="289" type="curve" smooth="yes"/>
      <point x="104" y="289"/>
      <point x="20" y="227"/>
      <point x="20" y="130" type="curve" smooth="yes"/>
      <point x="20" y="45"/>
      <point x="87" y="-10"/>
      <point x="187" y="-10" type="curve" smooth="yes"/>
      <point x="246" y="-10"/>
      <point x="298" y="9"/>
      <point x="343" y="43" type="curve"/>
      <point x="334" y="0" type="line"/>
      <point x="335" y="0" type="line"/>
      <point x="250" y="-38"/>
      <point x="199" y="-94"/>
      <point x="199" y="-149" type="curve" smooth="yes"/>
      <point x="199" y="-193"/>
      <point x="234" y="-222"/>
    </contour>
    <contour>
      <point x="195" y="29" type="curve" smooth="yes"/>
      <point x="108" y="29"/>
      <point x="63" y="72"/>
      <point x="63" y="132" type="curve" smooth="yes"/>
      <point x="63" y="206"/>
      <point x="126" y="251"/>
      <point x="213" y="251" type="curve" smooth="yes"/>
      <point x="279" y="251"/>
      <point x="335" y="231"/>
      <point x="375" y="192" type="curve"/>
      <point x="354" y="92" type="line"/>
      <point x="307" y="51"/>
      <point x="256" y="29"/>
    </contour>
  </outline>
</glyph>
<glyph name="gcommaaccent" format="2">
  <advance width="564"/>
  <unicode hex="0123"/>
  <outline>
    <contour>
      <point x="436" y="772" type="line"/>
      <point x="400" y="772" type="line"/>
      <point x="313" y="604" type="line"/>
      <point x="364" y="604" type="line"/>
    </contour>
    <component base="g"/>
  </outline>
</glyph>
<glyph name="hcircumflex" format="2">
  <advance width="519"/>
  <unicode hex="0125"/>
  <outline>
    <contour>
      <point x="84" y="799" type="line"/>
      <point x="123" y="799" type="line"/>
      <point x="228" y="882" type="line"/>
      <point x="295" y="799" type="line"/>
      <point x="330" y="799" type="line"/>
      <point x="258" y="914" type="line"/>
      <point x="206" y="914" type="line"/>
    </contour>
    <contour>
      <point x="16" y="0" type="line"/>
      <point x="59" y="0" type="line"/>
      <point x="140" y="379" type="line"/>
      <point x="179" y="430"/>
      <point x="237" y="461"/>
      <point x="300" y="461" type="curve" smooth="yes"/>
      <point x="395" y="461"/>
      <point x="444" y="395"/>
      <point x="422" y="291" type="curve" smooth="yes"/>
      <point x="360" y="0" type="line"/>
      <point x="403" y="0" type="line"/>
      <point x="466" y="297" type="line" smooth="yes"/>
      <point x="492" y="419"/>
      <point x="420" y="502"/>
      <point x="308" y="502" type="curve" smooth="yes"/>
      <point x="248" y="502"/>
      <point x="196" y="479"/>
      <point x="151" y="434" type="curve"/>
      <point x="208" y="700" type="line"/>
      <point x="165" y="700" type="line"/>
    </contour>
  </outline>
</glyph>
<glyph name="hbar" format="2">
  <advance width="519"/>
  <unicode hex="0127"/>
  <outline>
    <contour>
      <point x="16" y="0" type="line"/>
      <point x="59" y="0" type="line"/>
      <point x="140" y="379" type="line"/>
      <point x="179" y="430"/>
      <point x="237" y="461"/>
      <point x="300" y="461" type="curve" smooth="yes"/>
      <point x="395" y="461"/>
      <point x="444" y="395"/>
      <point x="422" y="291" type="curve" smooth="yes"/>
      <point x="360" y="0" type="line"/>
      <point x="403" y="0" type="line"/>
      <point x="466" y="297" type="line" smooth="yes"/>
      <point x="492" y="419"/>
      <point x="420" y="502"/>
      <point x="308" y="502" type="curve" smooth="yes"/>
      <point x="248" y="502"/>
      <point x="196" y="479"/>
      <point x="151" y="433" type="curve"/>
      <point x="184" y="590" type="line"/>
      <point x="356" y="590" type="line"/>
      <point x="364" y="627" type="line"/>
      <point x="192" y="627" type="line"/>
      <point x="210" y="711" type="line"/>
      <point x="165" y="700" type="line"/>
      <point x="149" y="627" type="line"/>
      <point x="83" y="627" type="line"/>
      <point x="75" y="590" type="line"/>
      <point x="142" y="590" type="line"/>
    </contour>
  </outline>
</glyph>
<glyph name="Iogonek" format="2">
  <advance width="207"/>
  <unicode hex="012E"/>
  <outline>
    <contour>
      <point x="-17" y="-222" type="curve" smooth="yes"/>
      <point x="5" y="-222"/>
      <point x="24" y="-217"/>
      <point x="42" y="-209" type="curve"/>
      <point x="38" y="-178" type="line"/>
      <point x="23" y="-185"/>
      <point x="5" y="-189"/>
      <point x="-11" y="-189" type="curve" smooth="yes"/>
      <point x="-43" y="-189"/>
      <point x="-65" y="-170"/>
      <point x="-65" y="-143" type="curve" smooth="yes"/>
      <point x="-65" y="-99"/>
      <point x="-34" y="-55"/>
      <point x="74" y="0" type="curve"/>
      <point x="223" y="700" type="line"/>
      <point x="178" y="700" type="line"/>
      <point x="29" y="0" type="line"/>
      <point x="30" y="0" type="line"/>
      <point x="-54" y="-38"/>
      <point x="-104" y="-94"/>
      <point x="-104" y="-149" type="curve" smooth="yes"/>
      <point x="-104" y="-187"/>
      <point x="-76" y="-222"/>
    </contour>
  </outline>
</glyph>
<glyph name="lacute" format="2">
  <advance width="178"/>
  <unicode hex="013A"/>
  <outline>
    <contour>
      <point x="180" y="804" type="line"/>
      <point x="226" y="804" type="line"/>
      <point x="365" y="914" type="line"/>
      <point x="297" y="914" type="line"/>
    </contour>
    <contour>
      <point x="16" y="0" type="line"/>
      <point x="59" y="0" type="line"/>
      <point x="208" y="700" type="line"/>
      <point x="165" y="700" type="line"/>
    </contour>
  </outline>
</glyph>
<glyph name="OE" format="2">
  <advance width="1055"/>
  <unicode hex="0152"/>
  <outline>
    <contour>
      <point x="368" y="0" type="curve" smooth="yes"/>
      <point x="973" y="0" type="line"/>
      <point x="982" y="43" type="line"/>
      <point x="532" y="43" type="line"/>
      <point x="641" y="98"/>
      <point x="723" y="205"/>
      <point x="741" y="332" type="curve"/>
      <point x="916" y="332" type="line"/>
      <point x="925" y="375" type="line"/>
      <point x="745" y="375" type="line"/>
      <point x="747" y="503"/>
      <point x="686" y="604"/>
      <point x="594" y="657" type="curve"/>
      <point x="1109" y="657" type="line"/>
      <point x="1118" y="700" type="line"/>
      <point x="444" y="700" type="line" smooth="yes"/>
      <point x="243" y="700"/>
      <point x="67" y="526"/>
      <point x="67" y="315" type="curve" smooth="yes"/>
      <point x="67" y="139"/>
      <point x="194" y="0"/>
    </contour>
    <contour>
      <point x="373" y="43" type="curve" smooth="yes"/>
      <point x="221" y="43"/>
      <point x="113" y="159"/>
      <point x="113" y="313" type="curve" smooth="yes"/>
      <point x="113" y="499"/>
      <point x="264" y="657"/>
      <point x="440" y="657" type="curve" smooth="yes"/>
      <point x="591" y="657"/>
      <point x="699" y="541"/>
      <point x="699" y="387" type="curve" smooth="yes"/>
      <point x="699" y="201"/>
      <point x="548" y="43"/>
    </contour>
  </outline>
</glyph>
<glyph name="Tcedilla" format="2">
  <advance width="588"/>
  <unicode hex="0162"/>
  <outline>
    <contour>
      <point x="198" y="-224" type="curve" smooth="yes"/>
      <point x="261" y="-224"/>
      <point x="309" y="-186"/>
      <point x="309" y="-130" type="curve" smooth="yes"/>
      <point x="309" y="-92"/>
      <point x="282" y="-65"/>
      <point x="230" y="-60" type="curve"/>
      <point x="259" y="0" type="line"/>
      <point x="265" y="0" type="line"/>
      <point x="405" y="657" type="line"/>
      <point x="660" y="657" type="line"/>
      <point x="669" y="700" type="line"/>
      <point x="113" y="700" type="line"/>
      <point x="104" y="657" type="line"/>
      <point x="360" y="657" type="line"/>
      <point x="220" y="0" type="line"/>
      <point x="227" y="0" type="line"/>
      <point x="184" y="-89" type="line"/>
      <point x="208" y="-89" type="line" smooth="yes"/>
      <point x="247" y="-89"/>
      <point x="275" y="-105"/>
      <point x="275" y="-135" type="curve" smooth="yes"/>
      <point x="275" y="-168"/>
      <point x="247" y="-193"/>
      <point x="198" y="-193" type="curve" smooth="yes"/>
      <point x="167" y="-193"/>
      <point x="143" y="-182"/>
      <point x="120" y="-157" type="curve"/>
      <point x="94" y="-180" type="line"/>
      <point x="115" y="-207"/>
      <point x="155" y="-224"/>
    </contour>
  </outline>
</glyph>
<glyph name="tcedilla" format="2">
  <advance width="330"/>
  <unicode hex="0163"/>
  <outline>
    <contour>
      <point x="138" y="-224" type="curve" smooth="yes"/>
      <point x="201" y="-224"/>
      <point x="249" y="-186"/>
      <point x="249" y="-130" type="curve" smooth="yes"/>
      <point x="249" y="-92"/>
      <point x="222" y="-65"/>
      <point x="170" y="-60" type="curve"/>
      <point x="194" y="-10" type="line"/>
      <point x="215" y="-10"/>
      <point x="243" y="-7"/>
      <point x="262" y="-1" type="curve"/>
      <point x="271" y="42" type="line"/>
      <point x="244" y="34"/>
      <point x="230" y="31"/>
      <point x="215" y="31" type="curve" smooth="yes"/>
      <point x="147" y="31"/>
      <point x="125" y="55"/>
      <point x="138" y="115" type="curve" smooth="yes"/>
      <point x="210" y="452" type="line"/>
      <point x="356" y="452" type="line"/>
      <point x="365" y="492" type="line"/>
      <point x="219" y="492" type="line"/>
      <point x="248" y="630" type="line"/>
      <point x="202" y="616" type="line"/>
      <point x="175" y="492" type="line"/>
      <point x="69" y="492" type="line"/>
      <point x="60" y="452" type="line"/>
      <point x="167" y="452" type="line"/>
      <point x="93" y="106" type="line" smooth="yes"/>
      <point x="79" y="43"/>
      <point x="105" y="4"/>
      <point x="164" y="-7" type="curve"/>
      <point x="124" y="-89" type="line"/>
      <point x="148" y="-89" type="line" smooth="yes"/>
      <point x="187" y="-89"/>
      <point x="215" y="-105"/>
      <point x="215" y="-135" type="curve" smooth="yes"/>
      <point x="215" y="-168"/>
      <point x="187" y="-193"/>
      <point x="138" y="-193" type="curve" smooth="yes"/>
      <point x="107" y="-193"/>
      <point x="83" y="-182"/>
      <point x="60" y="-157" type="curve"/>
      <point x="34" y="-180" type="line"/>
      <point x="55" y="-207"/>
      <point x="95" y="-224"/>
    </contour>
  </outline>
</glyph>
<glyph name="Uogonek" format="2">
  <advance width="680"/>
  <unicode hex="0172"/>
  <outline>
    <contour>
      <point x="305" y="-222" type="curve" smooth="yes"/>
      <point x="327" y="-222"/>
      <point x="346" y="-217"/>
      <point x="364" y="-209" type="curve"/>
      <point x="360" y="-178" type="line"/>
      <point x="345" y="-185"/>
      <point x="327" y="-189"/>
      <point x="311" y="-189" type="curve" smooth="yes"/>
      <point x="279" y="-189"/>
      <point x="257" y="-170"/>
      <point x="257" y="-143" type="curve" smooth="yes"/>
      <point x="257" y="-99"/>
      <point x="288" y="-55"/>
      <point x="395" y="-1" type="curve"/>
      <point x="513" y="31"/>
      <point x="590" y="136"/>
      <point x="624" y="295" type="curve" smooth="yes"/>
      <point x="710" y="700" type="line"/>
      <point x="665" y="700" type="line"/>
      <point x="579" y="295" type="line" smooth="yes"/>
      <point x="544" y="129"/>
      <point x="447" y="32"/>
      <point x="313" y="32" type="curve" smooth="yes"/>
      <point x="173" y="32"/>
      <point x="87" y="127"/>
      <point x="123" y="297" type="curve" smooth="yes"/>
      <point x="209" y="700" type="line"/>
      <point x="164" y="700" type="line"/>
      <point x="77" y="292" type="line" smooth="yes"/>
      <point x="35" y="97"/>
      <point x="156" y="-15"/>
      <point x="323" y="-11" type="curve"/>
      <point x="244" y="-61"/>
      <point x="218" y="-107"/>
      <point x="218" y="-149" type="curve" smooth="yes"/>
      <point x="218" y="-187"/>
      <point x="246" y="-222"/>
    </contour>
  </outline>
</glyph>
<glyph name="circumflex" format="2">
  <advance width="600"/>
  <unicode hex="02C6"/>
  <guideline x="371" y="577" angle="78.0" identifier="PQk8V4ZWtp"/>
  <outline>
    <contour>
      <point x="251" y="591" type="line"/>
      <point x="290" y="591" type="line"/>
      <point x="395" y="674" type="line"/>
      <point x="462" y="591" type="line"/>
      <point x="497" y="591" type="line"/>
      <point x="425" y="706" type="line"/>
      <point x="373" y="706" type="line"/>
    </contour>
  </outline>
</glyph>
<glyph name="breve" format="2">
  <advance width="600"/>
  <unicode hex="02D8"/>
  <outline>
    <contour>
      <point x="383" y="587" type="curve" smooth="yes"/>
      <point x="453" y="587"/>
      <point x="509" y="632"/>
      <point x="539" y="703" type="curve"/>
      <point x="504" y="714" type="line"/>
      <point x="478" y="655"/>
      <point x="438" y="623"/>
      <point x="386" y="623" type="curve" smooth="yes"/>
      <point x="333" y="623"/>
      <point x="295" y="651"/>
      <point x="294" y="715" type="curve"/>
      <point x="258" y="710" type="line"/>
      <point x="257" y="633"/>
      <point x="312" y="587"/>
    </contour>
  </outline>
</glyph>
<glyph name="ogonek" format="2">
  <advance width="600"/>
  <unicode hex="02DB"/>
  <guideline x="260" y="-222" angle="0.0" identifier="mzN8T6YgnN"/>
  <outline>
    <contour>
      <point x="208" y="-222" type="curve" smooth="yes"/>
      <point x="228" y="-222"/>
      <point x="247" y="-218"/>
      <point x="267" y="-209" type="curve"/>
      <point x="263" y="-178" type="line"/>
      <point x="248" y="-185"/>
      <point x="230" y="-189"/>
      <point x="214" y="-189" type="curve" smooth="yes"/>
      <point x="182" y="-189"/>
      <point x="160" y="-170"/>
      <point x="160" y="-143" type="curve" smooth="yes"/>
      <point x="160" y="-99"/>
      <point x="191" y="-55"/>
      <point x="299" y="0" type="curve"/>
      <point x="275" y="17" type="line"/>
      <point x="157" y="-44"/>
      <point x="121" y="-100"/>
      <point x="121" y="-149" type="curve" smooth="yes"/>
      <point x="121" y="-193"/>
      <point x="156" y="-222"/>
    </contour>
  </outline>
</glyph>
<glyph name="tilde" format="2">
  <advance width="600"/>
  <unicode hex="02DC"/>
  <outline>
    <contour>
      <point x="261" y="598" type="line"/>
      <point x="277" y="635"/>
      <point x="292" y="650"/>
      <point x="313" y="650" type="curve" smooth="yes"/>
      <point x="354" y="650"/>
      <point x="398" y="594"/>
      <point x="450" y="594" type="curve" smooth="yes"/>
      <point x="488" y="594"/>
      <point x="519" y="618"/>
      <point x="544" y="675" type="curve"/>
      <point x="507" y="685" type="line"/>
      <point x="490" y="647"/>
      <point x="476" y="632"/>
      <point x="454" y="632" type="curve" smooth="yes"/>
      <point x="411" y="632"/>
      <point x="369" y="689"/>
      <point x="316" y="689" type="curve" smooth="yes"/>
      <point x="279" y="689"/>
      <point x="250" y="662"/>
      <point x="224" y="608" type="curve"/>
    </contour>
  </outline>
</glyph>
<glyph name="hungarumlaut" format="2">
  <advance width="600"/>
  <unicode hex="02DD"/>
  <outline>
    <contour>
      <point x="387" y="706" type="line"/>
      <point x="261" y="599" type="line"/>
      <point x="307" y="599" type="line"/>
      <point x="451" y="706" type="line"/>
    </contour>
    <contour>
      <point x="530" y="706" type="line"/>
      <point x="404" y="599" type="line"/>
      <point x="451" y="599" type="line"/>
      <point x="594" y="706" type="line"/>
    </contour>
  </outline>
</glyph>
<glyph name="endash" format="2">
  <advance width="532"/>
  <unicode hex="2013"/>
  <outline>
    <contour>
      <point x="64" y="302" type="line"/>
      <point x="55" y="258" type="line"/>
      <point x="483" y="258" type="line"/>
      <point x="492" y="302" type="line"/>
    </contour>
  </outline>
</glyph>
<glyph name="daggerdbl" format="2">
  <advance width="405"/>
  <unicode hex="2021"/>
  <guideline x="91" y="415" angle="78.0" identifier="InTMLuvfUE"/>
  <guideline x="394" y="439" angle="78.0" identifier="7hBLPWGrGD"/>
  <outline>
    <contour>
      <point x="128" y="0" type="line"/>
      <point x="172" y="0" type="line"/>
      <point x="216" y="206" type="line"/>
      <point x="342" y="206" type="line"/>
      <point x="351" y="246" type="line"/>
      <point x="224" y="246" type="line"/>
      <point x="269" y="455" type="line"/>
      <point x="395" y="455" type="line"/>
      <point x="404" y="495" type="line"/>
      <point x="277" y="495" type="line"/>
      <point x="321" y="700" type="line"/>
      <point x="277" y="700" type="line"/>
      <point x="233" y="495" type="line"/>
      <point x="108" y="495" type="line"/>
      <point x="99" y="455" type="line"/>
      <point x="225" y="455" type="line"/>
      <point x="180" y="246" type="line"/>
      <point x="55" y="246" type="line"/>
      <point x="46" y="206" type="line"/>
      <point x="172" y="206" type="line"/>
    </contour>
  </outline>
</glyph>
<glyph name="bullet" format="2">
  <advance width="311"/>
  <unicode hex="2022"/>
  <outline>
    <contour>
      <point x="171" y="267" type="curve" smooth="yes"/>
      <point x="227" y="267"/>
      <point x="272" y="315"/>
      <point x="272" y="374" type="curve" smooth="yes"/>
      <point x="272" y="420"/>
      <point x="235" y="457"/>
      <point x="190" y="457" type="curve" smooth="yes"/>
      <point x="134" y="457"/>
      <point x="89" y="409"/>
      <point x="89" y="350" type="curve" smooth="yes"/>
      <point x="89" y="304"/>
      <point x="126" y="267"/>
    </contour>
  </outline>
</glyph>
<glyph name="fraction" format="2">
  <advance width="566"/>
  <unicode hex="2044"/>
  <outline>
    <contour>
      <point x="18" y="0" type="line"/>
      <point x="64" y="0" type="line"/>
      <point x="595" y="700" type="line"/>
      <point x="549" y="700" type="line"/>
    </contour>
  </outline>
</glyph>
<glyph name="uni2070" format="2">
  <advance width="342"/>
  <unicode hex="2070"/>
  <outline>
    <contour>
      <point x="208" y="345" type="curve" smooth="yes"/>
      <point x="300" y="345"/>
      <point x="376" y="446"/>
      <point x="376" y="568" type="curve" smooth="yes"/>
      <point x="376" y="651"/>
      <point x="329" y="705"/>
      <point x="255" y="705" type="curve" smooth="yes"/>
      <point x="163" y="705"/>
      <point x="87" y="604"/>
      <point x="87" y="482" type="curve" smooth="yes"/>
      <point x="87" y="399"/>
      <point x="134" y="345"/>
    </contour>
    <contour>
      <point x="213" y="379" type="curve" smooth="yes"/>
      <point x="157" y="379"/>
      <point x="123" y="418"/>
      <point x="123" y="481" type="curve" smooth="yes"/>
      <point x="123" y="583"/>
      <point x="182" y="671"/>
      <point x="250" y="671" type="curve" smooth="yes"/>
      <point x="306" y="671"/>
      <point x="340" y="632"/>
      <point x="340" y="569" type="curve" smooth="yes"/>
      <point x="340" y="467"/>
      <point x="281" y="379"/>
    </contour>
  </outline>
</glyph>
<glyph name="uni2074" format="2">
  <advance width="312"/>
  <unicode hex="2074"/>
  <outline>
    <contour>
      <point x="239" y="350" type="line"/>
      <point x="274" y="350" type="line"/>
      <point x="294" y="443" type="line"/>
      <point x="336" y="443" type="line"/>
      <point x="343" y="476" type="line"/>
      <point x="301" y="476" type="line"/>
      <point x="350" y="700" type="line"/>
      <point x="310" y="700" type="line"/>
      <point x="69" y="471" type="line"/>
      <point x="63" y="443" type="line"/>
      <point x="259" y="443" type="line"/>
    </contour>
    <contour>
      <point x="123" y="476" type="line"/>
      <point x="304" y="648" type="line"/>
      <point x="266" y="476" type="line"/>
    </contour>
  </outline>
</glyph>
<glyph name="uni2075" format="2">
  <advance width="290"/>
  <unicode hex="2075"/>
  <outline>
    <contour>
      <point x="177" y="345" type="curve" smooth="yes"/>
      <point x="259" y="345"/>
      <point x="314" y="399"/>
      <point x="314" y="467" type="curve" smooth="yes"/>
      <point x="314" y="525"/>
      <point x="268" y="567"/>
      <point x="199" y="567" type="curve" smooth="yes"/>
      <point x="179" y="567"/>
      <point x="160" y="563"/>
      <point x="141" y="558" type="curve"/>
      <point x="169" y="667" type="line"/>
      <point x="339" y="667" type="line"/>
      <point x="345" y="700" type="line"/>
      <point x="142" y="700" type="line"/>
      <point x="100" y="534" type="line"/>
      <point x="119" y="525" type="line"/>
      <point x="144" y="533"/>
      <point x="167" y="536"/>
      <point x="189" y="536" type="curve" smooth="yes"/>
      <point x="246" y="536"/>
      <point x="279" y="509"/>
      <point x="279" y="465" type="curve" smooth="yes"/>
      <point x="279" y="416"/>
      <point x="237" y="378"/>
      <point x="179" y="378" type="curve" smooth="yes"/>
      <point x="135" y="378"/>
      <point x="105" y="394"/>
      <point x="80" y="425" type="curve"/>
      <point x="54" y="401" type="line"/>
      <point x="84" y="362"/>
      <point x="131" y="345"/>
    </contour>
  </outline>
</glyph>
<glyph name="uni2076" format="2">
  <advance width="317"/>
  <unicode hex="2076"/>
  <outline>
    <contour>
      <point x="205" y="345" type="curve" smooth="yes"/>
      <point x="278" y="345"/>
      <point x="338" y="400"/>
      <point x="338" y="466" type="curve" smooth="yes"/>
      <point x="338" y="524"/>
      <point x="290" y="569"/>
      <point x="230" y="569" type="curve" smooth="yes"/>
      <point x="194" y="569"/>
      <point x="155" y="552"/>
      <point x="126" y="526" type="curve"/>
      <point x="142" y="611"/>
      <point x="201" y="672"/>
      <point x="273" y="672" type="curve" smooth="yes"/>
      <point x="296" y="672"/>
      <point x="322" y="663"/>
      <point x="342" y="649" type="curve"/>
      <point x="367" y="676" type="line"/>
      <point x="341" y="695"/>
      <point x="308" y="705"/>
      <point x="277" y="705" type="curve" smooth="yes"/>
      <point x="169" y="705"/>
      <point x="86" y="607"/>
      <point x="86" y="480" type="curve" smooth="yes"/>
      <point x="86" y="398"/>
      <point x="133" y="345"/>
    </contour>
    <contour>
      <point x="207" y="378" type="curve" smooth="yes"/>
      <point x="149" y="378"/>
      <point x="116" y="424"/>
      <point x="122" y="494" type="curve"/>
      <point x="151" y="522"/>
      <point x="186" y="538"/>
      <point x="221" y="538" type="curve" smooth="yes"/>
      <point x="268" y="538"/>
      <point x="302" y="508"/>
      <point x="302" y="465" type="curve" smooth="yes"/>
      <point x="302" y="417"/>
      <point x="259" y="378"/>
    </contour>
  </outline>
</glyph>
<glyph name="uni2078" format="2">
  <advance width="317"/>
  <unicode hex="2078"/>
  <outline>
    <contour>
      <point x="194" y="345" type="curve" smooth="yes"/>
      <point x="269" y="345"/>
      <point x="330" y="393"/>
      <point x="330" y="453" type="curve" smooth="yes"/>
      <point x="330" y="486"/>
      <point x="308" y="515"/>
      <point x="274" y="530" type="curve"/>
      <point x="320" y="543"/>
      <point x="351" y="580"/>
      <point x="351" y="619" type="curve" smooth="yes"/>
      <point x="351" y="668"/>
      <point x="304" y="705"/>
      <point x="242" y="705" type="curve" smooth="yes"/>
      <point x="175" y="705"/>
      <point x="120" y="661"/>
      <point x="120" y="607" type="curve" smooth="yes"/>
      <point x="120" y="578"/>
      <point x="136" y="553"/>
      <point x="163" y="539" type="curve"/>
      <point x="111" y="526"/>
      <point x="72" y="485"/>
      <point x="72" y="439" type="curve" smooth="yes"/>
      <point x="72" y="384"/>
      <point x="123" y="345"/>
    </contour>
    <contour>
      <point x="229" y="549" type="curve" smooth="yes"/>
      <point x="186" y="549"/>
      <point x="155" y="572"/>
      <point x="155" y="605" type="curve" smooth="yes"/>
      <point x="155" y="643"/>
      <point x="194" y="673"/>
      <point x="242" y="673" type="curve" smooth="yes"/>
      <point x="285" y="673"/>
      <point x="316" y="650"/>
      <point x="316" y="617" type="curve" smooth="yes"/>
      <point x="316" y="579"/>
      <point x="277" y="549"/>
    </contour>
    <contour>
      <point x="194" y="377" type="curve" smooth="yes"/>
      <point x="142" y="377"/>
      <point x="107" y="403"/>
      <point x="107" y="441" type="curve" smooth="yes"/>
      <point x="107" y="485"/>
      <point x="152" y="519"/>
      <point x="208" y="519" type="curve" smooth="yes"/>
      <point x="260" y="519"/>
      <point x="295" y="493"/>
      <point x="295" y="455" type="curve" smooth="yes"/>
      <point x="295" y="411"/>
      <point x="250" y="377"/>
    </contour>
  </outline>
</glyph>
<glyph name="uni2081" format="2">
  <advance width="148"/>
  <unicode hex="2081"/>
  <outline>
    <contour>
      <point x="29" y="0" type="line"/>
      <point x="64" y="0" type="line"/>
      <point x="138" y="350" type="line"/>
      <point x="114" y="350" type="line"/>
      <point x="38" y="319" type="line"/>
      <point x="29" y="281" type="line"/>
      <point x="94" y="307" type="line"/>
    </contour>
  </outline>
</glyph>
<glyph name="uni2082" format="2">
  <advance width="279"/>
  <unicode hex="2082"/>
  <outline>
    <contour>
      <point x="-26" y="0" type="line"/>
      <point x="206" y="0" type="line"/>
      <point x="212" y="33" type="line"/>
      <point x="37" y="33" type="line"/>
      <point x="181" y="149" type="line" smooth="yes"/>
      <point x="234" y="192"/>
      <point x="256" y="226"/>
      <point x="256" y="267" type="curve" smooth="yes"/>
      <point x="256" y="319"/>
      <point x="212" y="355"/>
      <point x="150" y="355" type="curve" smooth="yes"/>
      <point x="111" y="355"/>
      <point x="74" y="340"/>
      <point x="31" y="309" type="curve"/>
      <point x="53" y="283" type="line"/>
      <point x="91" y="311"/>
      <point x="119" y="322"/>
      <point x="150" y="322" type="curve" smooth="yes"/>
      <point x="193" y="322"/>
      <point x="221" y="300"/>
      <point x="221" y="267" type="curve" smooth="yes"/>
      <point x="221" y="235"/>
      <point x="204" y="210"/>
      <point x="159" y="173" type="curve" smooth="yes"/>
      <point x="-19" y="28" type="line"/>
    </contour>
  </outline>
</glyph>
<glyph name="uni2087" format="2">
  <advance width="283"/>
  <unicode hex="2087"/>
  <outline>
    <contour>
      <point x="1" y="0" type="line"/>
      <point x="44" y="0" type="line"/>
      <point x="290" y="321" type="line"/>
      <point x="295" y="350" type="line"/>
      <point x="38" y="350" type="line"/>
      <point x="32" y="317" type="line"/>
      <point x="245" y="317" type="line"/>
    </contour>
  </outline>
</glyph>
<glyph name="uni2089" format="2">
  <advance width="317"/>
  <unicode hex="2089"/>
  <outline>
    <contour>
      <point x="156" y="354" type="curve" smooth="yes"/>
      <point x="83" y="354"/>
      <point x="23" y="299"/>
      <point x="23" y="233" type="curve" smooth="yes"/>
      <point x="23" y="175"/>
      <point x="71" y="130"/>
      <point x="131" y="130" type="curve" smooth="yes"/>
      <point x="167" y="130"/>
      <point x="206" y="147"/>
      <point x="235" y="173" type="curve"/>
      <point x="219" y="88"/>
      <point x="160" y="27"/>
      <point x="88" y="27" type="curve" smooth="yes"/>
      <point x="65" y="27"/>
      <point x="39" y="36"/>
      <point x="19" y="50" type="curve"/>
      <point x="-6" y="23" type="line"/>
      <point x="20" y="4"/>
      <point x="53" y="-6"/>
      <point x="84" y="-6" type="curve" smooth="yes"/>
      <point x="192" y="-6"/>
      <point x="275" y="92"/>
      <point x="275" y="219" type="curve" smooth="yes"/>
      <point x="275" y="301"/>
      <point x="228" y="354"/>
    </contour>
    <contour>
      <point x="154" y="321" type="curve" smooth="yes"/>
      <point x="212" y="321"/>
      <point x="245" y="275"/>
      <point x="239" y="205" type="curve"/>
      <point x="210" y="177"/>
      <point x="175" y="161"/>
      <point x="140" y="161" type="curve" smooth="yes"/>
      <point x="93" y="161"/>
      <point x="59" y="191"/>
      <point x="59" y="234" type="curve" smooth="yes"/>
      <point x="59" y="282"/>
      <point x="102" y="321"/>
    </contour>
  </outline>
</glyph>
<glyph name="trademark" format="2">
  <advance width="656"/>
  <unicode hex="2122"/>
  <guideline x="237" y="563" angle="78.0" identifier="oJmZOqSZKF"/>
  <outline>
    <contour>
      <point x="356" y="425" type="line"/>
      <point x="387" y="425" type="line"/>
      <point x="435" y="652" type="line"/>
      <point x="493" y="444" type="line"/>
      <point x="640" y="659" type="line"/>
      <point x="591" y="425" type="line"/>
      <point x="622" y="425" type="line"/>
      <point x="680" y="700" type="line"/>
      <point x="641" y="700" type="line"/>
      <point x="507" y="504" type="line"/>
      <point x="451" y="700" type="line"/>
      <point x="414" y="700" type="line"/>
    </contour>
    <contour>
      <point x="174" y="425" type="line"/>
      <point x="205" y="425" type="line"/>
      <point x="257" y="672" type="line"/>
      <point x="356" y="672" type="line"/>
      <point x="362" y="700" type="line"/>
      <point x="133" y="700" type="line"/>
      <point x="127" y="672" type="line"/>
      <point x="226" y="672" type="line"/>
    </contour>
  </outline>
</glyph>
<glyph name="minus" format="2">
  <advance width="600"/>
  <unicode hex="2212"/>
  <outline>
    <contour>
      <point x="131" y="337" type="line"/>
      <point x="508" y="337" type="line"/>
      <point x="516" y="378" type="line"/>
      <point x="139" y="378" type="line"/>
    </contour>
  </outline>
</glyph>
<glyph name="notequal" format="2">
  <advance width="600"/>
  <unicode hex="2260"/>
  <outline>
    <contour>
      <point x="86" y="147" type="line"/>
      <point x="139" y="147" type="line"/>
      <point x="255" y="263" type="line"/>
      <point x="493" y="263" type="line"/>
      <point x="501" y="304" type="line"/>
      <point x="296" y="304" type="line"/>
      <point x="405" y="412" type="line"/>
      <point x="525" y="412" type="line"/>
      <point x="533" y="453" type="line"/>
      <point x="446" y="453" type="line"/>
      <point x="562" y="569" type="line"/>
      <point x="509" y="569" type="line"/>
      <point x="393" y="453" type="line"/>
      <point x="156" y="453" type="line"/>
      <point x="148" y="412" type="line"/>
      <point x="352" y="412" type="line"/>
      <point x="243" y="304" type="line"/>
      <point x="124" y="304" type="line"/>
      <point x="116" y="263" type="line"/>
      <point x="202" y="263" type="line"/>
    </contour>
  </outline>
</glyph>
<glyph name="a.school" format="2">
  <advance width="560"/>
  <anchor x="320" y="492" name="top"/>
  <anchor x="440" y="0" name="bottom"/>
  <outline>
    <contour>
      <point x="259" y="-10" type="curve" smooth="yes"/>
      <point x="311" y="-10"/>
      <point x="361" y="7"/>
      <point x="406" y="41" type="curve"/>
      <point x="397" y="0" type="line"/>
      <point x="440" y="0" type="line"/>
      <point x="545" y="492" type="line"/>
      <point x="502" y="492" type="line"/>
      <point x="487" y="420" type="line"/>
      <point x="448" y="471"/>
      <point x="384" y="502"/>
      <point x="312" y="502" type="curve" smooth="yes"/>
      <point x="164" y="502"/>
      <point x="43" y="374"/>
      <point x="43" y="218" type="curve" smooth="yes"/>
      <point x="43" y="87"/>
      <point x="134" y="-10"/>
    </contour>
    <contour>
      <point x="266" y="32" type="curve" smooth="yes"/>
      <point x="161" y="32"/>
      <point x="87" y="110"/>
      <point x="87" y="221" type="curve" smooth="yes"/>
      <point x="87" y="353"/>
      <point x="188" y="460"/>
      <point x="313" y="460" type="curve" smooth="yes"/>
      <point x="384" y="460"/>
      <point x="450" y="421"/>
      <point x="475" y="366" type="curve"/>
      <point x="417" y="95" type="line"/>
      <point x="376" y="55"/>
      <point x="322" y="32"/>
    </contour>
  </outline>
</glyph>
<glyph name="aogonek.school" format="2">
  <advance width="560"/>
  <outline>
    <contour>
      <point x="349" y="-222" type="curve" smooth="yes"/>
      <point x="369" y="-222"/>
      <point x="388" y="-218"/>
      <point x="408" y="-209" type="curve"/>
      <point x="404" y="-178" type="line"/>
      <point x="389" y="-185"/>
      <point x="371" y="-189"/>
      <point x="355" y="-189" type="curve" smooth="yes"/>
      <point x="323" y="-189"/>
      <point x="301" y="-170"/>
      <point x="301" y="-143" type="curve" smooth="yes"/>
      <point x="301" y="-93"/>
      <point x="344" y="-49"/>
      <point x="440" y="0" type="curve"/>
      <point x="545" y="492" type="line"/>
      <point x="502" y="492" type="line"/>
      <point x="487" y="420" type="line"/>
      <point x="447" y="472"/>
      <point x="383" y="502"/>
      <point x="312" y="502" type="curve" smooth="yes"/>
      <point x="164" y="502"/>
      <point x="43" y="374"/>
      <point x="43" y="218" type="curve" smooth="yes"/>
      <point x="43" y="87"/>
      <point x="134" y="-10"/>
      <point x="259" y="-10" type="curve" smooth="yes"/>
      <point x="312" y="-10"/>
      <point x="361" y="7"/>
      <point x="406" y="41" type="curve"/>
      <point x="397" y="0" type="line"/>
      <point x="398" y="0" type="line"/>
      <point x="314" y="-36"/>
      <point x="262" y="-93"/>
      <point x="262" y="-149" type="curve" smooth="yes"/>
      <point x="262" y="-193"/>
      <point x="297" y="-222"/>
    </contour>
    <contour>
      <point x="266" y="32" type="curve" smooth="yes"/>
      <point x="161" y="32"/>
      <point x="87" y="110"/>
      <point x="87" y="221" type="curve" smooth="yes"/>
      <point x="87" y="353"/>
      <point x="188" y="460"/>
      <point x="313" y="460" type="curve" smooth="yes"/>
      <point x="383" y="460"/>
      <point x="450" y="421"/>
      <point x="475" y="366" type="curve"/>
      <point x="417" y="95" type="line"/>
      <point x="376" y="55"/>
      <point x="321" y="32"/>
    </contour>
  </outline>
</glyph>
<glyph name="cordinal" format="2">
  <advance width="390"/>
  <guideline x="423" y="512" angle="78.0" identifier="3PYhxXisr6"/>
  <outline>
    <contour>
      <point x="262" y="325" type="curve" smooth="yes"/>
      <point x="305" y="325"/>
      <point x="353" y="338"/>
      <point x="396" y="369" type="curve"/>
      <point x="375" y="403" type="line"/>
      <point x="338" y="377"/>
      <point x="300" y="363"/>
      <point x="265" y="363" type="curve" smooth="yes"/>
      <point x="192" y="363"/>
      <point x="133" y="414"/>
      <point x="133" y="503" type="curve" smooth="yes"/>
      <point x="133" y="597"/>
      <point x="205" y="673"/>
      <point x="293" y="673" type="curve" smooth="yes"/>
      <point x="340" y="673"/>
      <point x="381" y="652"/>
      <point x="408" y="616" type="curve"/>
      <point x="440" y="640" type="line"/>
      <point x="407" y="685"/>
      <point x="351" y="711"/>
      <point x="294" y="711" type="curve" smooth="yes"/>
      <point x="183" y="711"/>
      <point x="93" y="617"/>
      <point x="93" y="502" type="curve" smooth="yes"/>
      <point x="93" y="393"/>
      <point x="169" y="325"/>
    </contour>
  </outline>
</glyph>
<glyph name="eight.tab" format="2">
  <advance width="600"/>
  <outline>
    <contour>
      <point x="273" y="-11" type="curve" smooth="yes"/>
      <point x="420" y="-11"/>
      <point x="539" y="84"/>
      <point x="539" y="202" type="curve" smooth="yes"/>
      <point x="539" y="274"/>
      <point x="490" y="335"/>
      <point x="411" y="366" type="curve"/>
      <point x="510" y="389"/>
      <point x="579" y="460"/>
      <point x="579" y="542" type="curve" smooth="yes"/>
      <point x="579" y="638"/>
      <point x="489" y="711"/>
      <point x="372" y="711" type="curve" smooth="yes"/>
      <point x="243" y="711"/>
      <point x="139" y="626"/>
      <point x="139" y="521" type="curve" smooth="yes"/>
      <point x="139" y="460"/>
      <point x="176" y="406"/>
      <point x="239" y="378" type="curve"/>
      <point x="123" y="357"/>
      <point x="37" y="272"/>
      <point x="37" y="175" type="curve" smooth="yes"/>
      <point x="37" y="67"/>
      <point x="136" y="-11"/>
    </contour>
    <contour>
      <point x="346" y="392" type="curve" smooth="yes"/>
      <point x="253" y="392"/>
      <point x="183" y="447"/>
      <point x="183" y="521" type="curve" smooth="yes"/>
      <point x="183" y="603"/>
      <point x="268" y="669"/>
      <point x="372" y="669" type="curve" smooth="yes"/>
      <point x="465" y="669"/>
      <point x="535" y="614"/>
      <point x="535" y="542" type="curve" smooth="yes"/>
      <point x="535" y="459"/>
      <point x="451" y="392"/>
    </contour>
    <contour>
      <point x="273" y="31" type="curve" smooth="yes"/>
      <point x="162" y="31"/>
      <point x="82" y="91"/>
      <point x="82" y="175" type="curve" smooth="yes"/>
      <point x="82" y="272"/>
      <point x="179" y="350"/>
      <point x="300" y="350" type="curve" smooth="yes"/>
      <point x="410" y="350"/>
      <point x="494" y="286"/>
      <point x="494" y="202" type="curve" smooth="yes"/>
      <point x="494" y="107"/>
      <point x="395" y="31"/>
    </contour>
  </outline>
</glyph>
<glyph name="exclamdown.cap" format="2">
  <advance width="173"/>
  <outline>
    <contour>
      <point x="163" y="518" type="line"/>
      <point x="126" y="518" type="line"/>
      <point x="10" y="-3" type="line"/>
      <point x="57" y="-3" type="line"/>
    </contour>
    <contour>
      <point x="181" y="710" type="curve" smooth="yes"/>
      <point x="158" y="710"/>
      <point x="140" y="692"/>
      <point x="140" y="669" type="curve" smooth="yes"/>
      <point x="140" y="650"/>
      <point x="155" y="635"/>
      <point x="173" y="635" type="curve" smooth="yes"/>
      <point x="196" y="635"/>
      <point x="214" y="653"/>
      <point x="214" y="676" type="curve" smooth="yes"/>
      <point x="214" y="695"/>
      <point x="199" y="710"/>
    </contour>
  </outline>
</glyph>
<glyph name="four.tab" format="2">
  <advance width="600"/>
  <outline>
    <contour>
      <point x="389" y="0" type="line"/>
      <point x="432" y="0" type="line"/>
      <point x="474" y="197" type="line"/>
      <point x="556" y="197" type="line"/>
      <point x="564" y="239" type="line"/>
      <point x="483" y="239" type="line"/>
      <point x="581" y="700" type="line"/>
      <point x="536" y="700" type="line"/>
      <point x="36" y="232" type="line"/>
      <point x="29" y="197" type="line"/>
      <point x="431" y="197" type="line"/>
    </contour>
    <contour>
      <point x="105" y="239" type="line"/>
      <point x="523" y="630" type="line"/>
      <point x="440" y="239" type="line"/>
    </contour>
  </outline>
</glyph>
<glyph name="one.tab" format="2">
  <advance width="600"/>
  <outline>
    <contour>
      <point x="44" y="0" type="line"/>
      <point x="479" y="0" type="line"/>
      <point x="488" y="42" type="line"/>
      <point x="288" y="42" type="line"/>
      <point x="427" y="700" type="line"/>
      <point x="401" y="700" type="line"/>
      <point x="174" y="612" type="line"/>
      <point x="164" y="565" type="line"/>
      <point x="373" y="646" type="line"/>
      <point x="245" y="42" type="line"/>
      <point x="53" y="42" type="line"/>
    </contour>
  </outline>
</glyph>
<glyph name="questiondown.cap" format="2">
  <advance width="487"/>
  <outline>
    <contour>
      <point x="357" y="511" type="curve"/>
      <point x="317" y="511" type="line"/>
      <point x="305" y="435"/>
      <point x="274" y="389"/>
      <point x="215" y="355" type="curve" smooth="yes"/>
      <point x="147" y="316" type="line" smooth="yes"/>
      <point x="69" y="271"/>
      <point x="28" y="211"/>
      <point x="28" y="141" type="curve" smooth="yes"/>
      <point x="28" y="54"/>
      <point x="105" y="-7"/>
      <point x="213" y="-7" type="curve" smooth="yes"/>
      <point x="286" y="-7"/>
      <point x="362" y="24"/>
      <point x="430" y="82" type="curve"/>
      <point x="402" y="114" type="line"/>
      <point x="340" y="62"/>
      <point x="276" y="35"/>
      <point x="213" y="35" type="curve" smooth="yes"/>
      <point x="129" y="35"/>
      <point x="72" y="78"/>
      <point x="72" y="141" type="curve" smooth="yes"/>
      <point x="72" y="196"/>
      <point x="104" y="243"/>
      <point x="169" y="280" type="curve" smooth="yes"/>
      <point x="237" y="319" type="line" smooth="yes"/>
      <point x="309" y="360"/>
      <point x="344" y="419"/>
    </contour>
    <contour>
      <point x="372" y="709" type="curve" smooth="yes"/>
      <point x="349" y="709"/>
      <point x="331" y="691"/>
      <point x="331" y="668" type="curve" smooth="yes"/>
      <point x="331" y="649"/>
      <point x="346" y="634"/>
      <point x="364" y="634" type="curve" smooth="yes"/>
      <point x="387" y="634"/>
      <point x="405" y="652"/>
      <point x="405" y="675" type="curve" smooth="yes"/>
      <point x="405" y="694"/>
      <point x="390" y="709"/>
    </contour>
  </outline>
</glyph>
<glyph name="reversequotedblleft" format="2">
  <advance width="359"/>
  <outline>
    <contour>
      <point x="200" y="709" type="line"/>
      <point x="150" y="709" type="line"/>
      <point x="218" y="522" type="line"/>
      <point x="255" y="522" type="line"/>
    </contour>
    <contour>
      <point x="309" y="709" type="line"/>
      <point x="259" y="709" type="line"/>
      <point x="327" y="522" type="line"/>
      <point x="364" y="522" type="line"/>
    </contour>
  </outline>
</glyph>
<glyph name="six.tab" format="2">
  <advance width="600"/>
  <outline>
    <contour>
      <point x="294" y="-11" type="curve" smooth="yes"/>
      <point x="435" y="-11"/>
      <point x="550" y="97"/>
      <point x="550" y="230" type="curve" smooth="yes"/>
      <point x="550" y="349"/>
      <point x="457" y="439"/>
      <point x="335" y="439" type="curve" smooth="yes"/>
      <point x="262" y="439"/>
      <point x="182" y="408"/>
      <point x="122" y="358" type="curve"/>
      <point x="159" y="538"/>
      <point x="287" y="669"/>
      <point x="439" y="669" type="curve" smooth="yes"/>
      <point x="482" y="669"/>
      <point x="535" y="652"/>
      <point x="578" y="625" type="curve"/>
      <point x="606" y="663" type="line"/>
      <point x="554" y="695"/>
      <point x="498" y="711"/>
      <point x="443" y="711" type="curve" smooth="yes"/>
      <point x="234" y="711"/>
      <point x="66" y="508"/>
      <point x="66" y="254" type="curve" smooth="yes"/>
      <point x="66" y="95"/>
      <point x="157" y="-11"/>
    </contour>
    <contour>
      <point x="297" y="31" type="curve" smooth="yes"/>
      <point x="167" y="31"/>
      <point x="94" y="141"/>
      <point x="114" y="305" type="curve"/>
      <point x="174" y="362"/>
      <point x="253" y="397"/>
      <point x="326" y="397" type="curve" smooth="yes"/>
      <point x="430" y="397"/>
      <point x="505" y="328"/>
      <point x="505" y="231" type="curve" smooth="yes"/>
      <point x="505" y="122"/>
      <point x="411" y="31"/>
    </contour>
  </outline>
</glyph>
<glyph name="three.tab" format="2">
  <advance width="600"/>
  <outline>
    <contour>
      <point x="269" y="-11" type="curve" smooth="yes"/>
      <point x="413" y="-11"/>
      <point x="520" y="84"/>
      <point x="520" y="199" type="curve" smooth="yes"/>
      <point x="520" y="272"/>
      <point x="474" y="333"/>
      <point x="400" y="360" type="curve"/>
      <point x="501" y="391"/>
      <point x="560" y="450"/>
      <point x="560" y="538" type="curve" smooth="yes"/>
      <point x="560" y="637"/>
      <point x="476" y="711"/>
      <point x="361" y="711" type="curve" smooth="yes"/>
      <point x="285" y="711"/>
      <point x="215" y="685"/>
      <point x="137" y="628" type="curve"/>
      <point x="161" y="594" type="line"/>
      <point x="233" y="646"/>
      <point x="293" y="669"/>
      <point x="359" y="669" type="curve" smooth="yes"/>
      <point x="452" y="669"/>
      <point x="515" y="615"/>
      <point x="515" y="534" type="curve" smooth="yes"/>
      <point x="515" y="455"/>
      <point x="442" y="382"/>
      <point x="318" y="382" type="curve" smooth="yes"/>
      <point x="261" y="382" type="line"/>
      <point x="253" y="344" type="line"/>
      <point x="309" y="344" type="line" smooth="yes"/>
      <point x="406" y="344"/>
      <point x="475" y="283"/>
      <point x="475" y="196" type="curve" smooth="yes"/>
      <point x="475" y="106"/>
      <point x="388" y="31"/>
      <point x="269" y="31" type="curve" smooth="yes"/>
      <point x="175" y="31"/>
      <point x="104" y="63"/>
      <point x="53" y="130" type="curve"/>
      <point x="19" y="104" type="line"/>
      <point x="79" y="27"/>
      <point x="163" y="-11"/>
    </contour>
  </outline>
</glyph>
<glyph name="two.tab" format="2">
  <advance width="600"/>
  <outline>
    <contour>
      <point x="17" y="0" type="line"/>
      <point x="463" y="0" type="line"/>
      <point x="471" y="42" type="line"/>
      <point x="101" y="42" type="line"/>
      <point x="420" y="308" type="line" smooth="yes"/>
      <point x="526" y="396"/>
      <point x="563" y="456"/>
      <point x="563" y="541" type="curve" smooth="yes"/>
      <point x="563" y="641"/>
      <point x="484" y="711"/>
      <point x="372" y="711" type="curve" smooth="yes"/>
      <point x="298" y="711"/>
      <point x="232" y="686"/>
      <point x="144" y="625" type="curve"/>
      <point x="168" y="589" type="line"/>
      <point x="247" y="645"/>
      <point x="309" y="669"/>
      <point x="372" y="669" type="curve" smooth="yes"/>
      <point x="460" y="669"/>
      <point x="518" y="617"/>
      <point x="518" y="538" type="curve"/>
      <point x="518" y="475"/>
      <point x="479" y="415"/>
      <point x="390" y="341" type="curve" smooth="yes"/>
      <point x="24" y="35" type="line"/>
    </contour>
  </outline>
</glyph>
<glyph name="uni0304" format="2">
  <guideline x="365" y="549" angle="78.0" identifier="TF0TaKjdV8"/>
  <anchor x="353" y="492" name="_top"/>
  <outline>
    <contour>
      <point x="250" y="620" type="line"/>
      <point x="511" y="620" type="line"/>
      <point x="519" y="657" type="line"/>
      <point x="257" y="657" type="line"/>
    </contour>
  </outline>
</glyph>
<glyph name="uni030B" format="2">
  <anchor x="353" y="492" name="_top"/>
  <outline>
    <contour>
      <point x="387" y="706" type="line"/>
      <point x="261" y="599" type="line"/>
      <point x="307" y="599" type="line"/>
      <point x="451" y="706" type="line"/>
    </contour>
    <contour>
      <point x="530" y="706" type="line"/>
      <point x="404" y="599" type="line"/>
      <point x="451" y="599" type="line"/>
      <point x="594" y="706" type="line"/>
    </contour>
  </outline>
</glyph>
<glyph name="uni030C" format="2">
  <anchor x="353" y="492" name="_top"/>
  <outline>
    <contour>
      <point x="347" y="594" type="line"/>
      <point x="399" y="594" type="line"/>
      <point x="521" y="708" type="line"/>
      <point x="479" y="708" type="line"/>
      <point x="378" y="625" type="line"/>
      <point x="312" y="708" type="line"/>
      <point x="275" y="708" type="line"/>
    </contour>
  </outline>
</glyph>
<glyph name="uni0326" format="2">
  <anchor x="242" y="0" name="_bottom"/>
  <outline>
    <contour>
      <point x="138" y="-254" type="line"/>
      <point x="174" y="-254" type="line"/>
      <point x="261" y="-86" type="line"/>
      <point x="210" y="-86" type="line"/>
    </contour>
  </outline>
</glyph>
